<?xml version="1.0" standalone="no"?>
<!DOCTYPE svg PUBLIC "-//W3C//DTD SVG 1.1//EN" "http://www.w3.org/Graphics/SVG/1.1/DTD/svg11.dtd" >
<svg>
<metadata>
Created by FontForge 20090914 at Thu Nov 19 11:32:35 2015
 By www-data
Copyright 1987, 1988, 1990, 1991, 1995, 1998, 2001 , 2002Adobe Systems Incorporated. All Rights Reserved. 
</metadata>
<defs>
<font id="LetterGothicStd-Bold" horiz-adv-x="600" >
  <font-face 
    font-family="Letter Gothic Std"
    font-weight="700"
    font-stretch="normal"
    units-per-em="1000"
    panose-1="2 11 5 9 2 2 2 3 3 4"
    ascent="742"
    descent="-258"
    x-height="535"
    cap-height="720"
    bbox="-188 -288 660 973"
    underline-thickness="50"
    underline-position="-50"
    stemh="63"
    stemv="75"
    unicode-range="U+0020-U+FB02"
  />
<missing-glyph 
d="M50 0v700h500v-700h-500zM300 395l170 255h-340zM330 350l170 -255v510zM130 50h340l-170 255zM100 605v-510l170 255z" />
    <glyph glyph-name=".notdef" 
d="M50 0v700h500v-700h-500zM300 395l170 255h-340zM330 350l170 -255v510zM130 50h340l-170 255zM100 605v-510l170 255z" />
    <glyph glyph-name="space" unicode=" " 
 />
    <glyph glyph-name="exclam" unicode="!" 
d="M349 720l-14 -501h-67l-17 501h98zM220 64c0 44 38 77 81 77s80 -33 80 -77s-37 -78 -80 -78c-44 0 -81 34 -81 78z" />
    <glyph glyph-name="quotedbl" unicode="&#x22;" 
d="M113 720h138v-130l-42 -129h-54l-42 129v130zM349 720h138v-130l-42 -129h-54l-42 129v130z" />
    <glyph glyph-name="numbersign" unicode="#" 
d="M255 805h75l-166 -901h-75l60 326h-133l15 66h130l24 132h-131l12 66h132zM341 -96h-75l166 901h75l-57 -311h133l-13 -66h-133l-24 -132h134l-12 -66h-134z" />
    <glyph glyph-name="dollar" unicode="$" 
d="M335 334v-205c43 13 71 46 71 94c0 52 -28 88 -71 111zM260 130v226c-35 12 -70 32 -96 59c-25 27 -42 61 -42 103c0 81 65 137 138 150v74h75v-73c52 -7 103 -34 144 -70l-44 -57c-28 28 -62 53 -100 61v-198c84 -31 146 -81 146 -180c0 -92 -59 -148 -146 -162v-93h-75
v93c-60 4 -115 36 -159 79l46 54c33 -31 69 -59 113 -66zM261 427v173c-38 -20 -64 -36 -64 -84c0 -40 32 -72 64 -89z" />
    <glyph glyph-name="percent" unicode="%" 
d="M469 184c0 25 -7 51 -37 51c-62 0 -84 -94 -84 -143c0 -27 7 -51 39 -51c59 0 82 97 82 143zM445 734h72l-378 -748h-72zM242 628c0 25 -8 51 -37 51c-63 0 -84 -94 -84 -143c0 -28 6 -51 39 -51c59 0 82 97 82 143zM277 102c0 91 53 188 154 188c66 0 109 -40 109 -107
c0 -92 -51 -197 -155 -197c-73 0 -108 47 -108 116zM50 546c0 91 53 188 154 188c66 0 109 -40 109 -107c0 -92 -51 -197 -155 -197c-73 0 -108 47 -108 116z" />
    <glyph glyph-name="ampersand" unicode="&#x26;" 
d="M376 120l-137 208c-42 -51 -85 -108 -85 -177c0 -60 33 -102 96 -102c53 0 97 27 126 71zM456 129l87 -99l-51 -53l-76 88c-43 -51 -100 -79 -166 -79c-100 0 -171 62 -171 164c0 99 58 172 120 243c-34 55 -67 111 -67 177c0 121 82 164 132 164c79 0 128 -66 128 -140
c0 -87 -51 -144 -104 -206l118 -190c3 15 5 32 7 50c4 42 4 88 4 120h73c-1 -80 -4 -163 -34 -239zM249 450c31 47 68 89 68 148c0 29 -16 73 -52 73c-43 0 -58 -57 -58 -91c0 -50 17 -88 42 -130z" />
    <glyph glyph-name="quotesingle" unicode="'" 
d="M231 720h138v-130l-42 -130h-54l-42 130v130z" />
    <glyph glyph-name="parenleft" unicode="(" 
d="M411 -29l-36 -49c-137 87 -200 252 -200 410s63 321 200 410l36 -50c-118 -84 -161 -220 -161 -360s43 -276 161 -361z" />
    <glyph glyph-name="parenright" unicode=")" 
d="M189 692l36 50c137 -89 200 -252 200 -410s-63 -322 -200 -410l-36 49c118 84 161 221 161 361c0 139 -43 276 -161 360z" />
    <glyph glyph-name="asterisk" unicode="*" 
d="M264 720h71v-185l180 53l21 -65l-185 -53l116 -146l-53 -42l-114 143l-111 -143l-55 42l115 146l-185 53l20 65l180 -53v185z" />
    <glyph glyph-name="plus" unicode="+" 
d="M575 393v-66h-240v-237h-70v237h-240v66h240v237h70v-237h240z" />
    <glyph glyph-name="comma" unicode="," 
d="M232 -112v68c24 5 46 15 64 32c-37 3 -66 31 -66 69c0 46 34 78 79 78c50 0 83 -44 83 -91c0 -84 -87 -139 -160 -156z" />
    <glyph glyph-name="hyphen" unicode="-" 
d="M430 327h-260v63h260v-63z" />
    <glyph glyph-name="period" unicode="." 
d="M220 64c0 44 38 77 81 77s80 -33 80 -77s-37 -78 -80 -78c-44 0 -81 34 -81 78z" />
    <glyph glyph-name="slash" unicode="/" 
d="M187 -27h-75l301 774h75z" />
    <glyph glyph-name="zero" unicode="0" 
d="M509 360c0 -100 3 -374 -209 -374c-210 0 -209 290 -209 374c0 42 -17 374 209 374c208 0 209 -270 209 -374zM166 360c0 -92 -2 -311 134 -311c66 0 134 47 134 311c0 255 -62 311 -134 311c-142 0 -134 -243 -134 -311z" />
    <glyph glyph-name="one" unicode="1" 
d="M341 742v-679h129v-63h-339v63h135v597l-141 -43v57z" />
    <glyph glyph-name="two" unicode="2" 
d="M175 63h328v-63h-403v32c0 158 65 228 178 325c57 48 148 121 148 202c0 67 -39 112 -107 112c-88 0 -126 -72 -130 -150h-75c7 122 77 213 206 213c106 0 181 -65 181 -174c0 -108 -88 -175 -161 -241l-52 -47c-65 -59 -109 -117 -113 -209z" />
    <glyph glyph-name="three" unicode="3" 
d="M248 354v63c81 -4 157 49 157 135c0 71 -58 119 -125 119c-62 0 -113 -51 -137 -104l-63 36c42 81 116 131 208 131c106 0 192 -82 192 -188c0 -68 -39 -120 -95 -155c80 -35 128 -100 128 -189c0 -133 -98 -216 -228 -216c-101 0 -165 54 -215 137l66 39
c30 -68 74 -113 152 -113c87 0 150 54 150 143c0 115 -84 172 -190 162z" />
    <glyph glyph-name="four" unicode="4" 
d="M423 734v-485h103v-63h-103v-186h-75v186h-287v49l265 499h97zM348 249v383h-2l-199 -383h201z" />
    <glyph glyph-name="five" unicode="5" 
d="M460 720v-63h-255l-20 -252c34 31 74 46 120 46c111 0 200 -86 200 -230c0 -124 -79 -235 -211 -235c-86 0 -149 52 -194 120l58 43c27 -54 78 -100 141 -100c86 0 131 90 131 166c0 121 -68 173 -123 173c-57 0 -95 -36 -123 -82l-76 15l30 399h322z" />
    <glyph glyph-name="six" unicode="6" 
d="M436 234c0 78 -32 162 -123 162c-81 0 -138 -92 -138 -179c0 -75 36 -168 124 -168c101 0 137 99 137 185zM503 690l-36 -62c-31 21 -62 43 -102 43c-126 0 -190 -182 -195 -285c43 48 86 73 153 73c124 0 188 -112 188 -224c0 -123 -70 -249 -207 -249
c-175 0 -209 181 -209 320c0 298 139 428 273 428c47 0 95 -19 135 -44z" />
    <glyph glyph-name="seven" unicode="7" 
d="M93 720h404l-281 -720h-81l264 657h-306v63z" />
    <glyph glyph-name="eight" unicode="8" 
d="M145 196c0 -94 64 -147 155 -147s155 53 155 147c0 93 -65 147 -155 147s-155 -54 -155 -147zM430 539c0 80 -48 132 -130 132c-86 0 -131 -56 -131 -140c0 -77 56 -125 131 -125c81 0 130 52 130 133zM422 377c73 -28 108 -107 108 -181c0 -117 -78 -210 -230 -210
c-160 0 -230 100 -230 210c0 74 35 153 108 181c-58 50 -84 89 -84 168c0 118 93 189 206 189c119 0 205 -73 205 -196c0 -75 -28 -114 -83 -161z" />
    <glyph glyph-name="nine" unicode="9" 
d="M163 486c0 -78 33 -162 123 -162c81 0 139 91 139 180c0 74 -37 167 -124 167c-101 0 -138 -99 -138 -185zM97 30l36 62c28 -20 66 -43 102 -43c126 0 189 182 195 286c-44 -49 -86 -74 -153 -74c-124 0 -189 112 -189 224c0 123 71 249 208 249c175 0 209 -181 209 -320
c0 -283 -130 -428 -273 -428c-48 0 -95 19 -135 44z" />
    <glyph glyph-name="colon" unicode=":" 
d="M220 64c0 44 38 77 81 77s80 -33 80 -77s-37 -78 -80 -78c-44 0 -81 34 -81 78zM220 403c0 44 38 77 81 77s80 -33 80 -77s-37 -78 -80 -78c-44 0 -81 34 -81 78z" />
    <glyph glyph-name="semicolon" unicode=";" 
d="M232 -112v68c24 5 46 15 64 32c-37 3 -66 31 -66 69c0 46 34 78 79 78c50 0 83 -44 83 -91c0 -84 -87 -139 -160 -156zM230 403c0 44 38 77 81 77s80 -33 80 -77s-37 -78 -80 -78c-44 0 -81 34 -81 78z" />
    <glyph glyph-name="less" unicode="&#x3c;" 
d="M475 720l42 -52l-333 -308l333 -308l-42 -52l-393 360z" />
    <glyph glyph-name="equal" unicode="=" 
d="M575 452v-66h-550v66h550zM575 334v-66h-550v66h550z" />
    <glyph glyph-name="greater" unicode="&#x3e;" 
d="M82 668l42 52l393 -360l-393 -360l-42 52l333 308z" />
    <glyph glyph-name="question" unicode="?" 
d="M332 216h-75v106c0 60 18 83 89 136c36 28 54 52 54 100c0 66 -39 113 -107 113s-104 -47 -104 -110h-75c5 106 73 173 180 173c110 0 181 -68 181 -179c0 -65 -23 -99 -64 -135c-59 -53 -79 -50 -79 -98v-106zM222 64c0 44 38 77 81 77s80 -33 80 -77s-37 -78 -80 -78
c-44 0 -81 34 -81 78z" />
    <glyph glyph-name="at" unicode="@" 
d="M518 137l27 -67c-80 -52 -172 -84 -267 -84c-136 0 -281 94 -281 311c0 197 108 437 330 437c141 0 276 -127 276 -308c0 -99 -44 -246 -164 -246c-44 0 -59 13 -89 44c-33 -27 -55 -44 -100 -44c-57 0 -97 40 -97 98s26 136 66 181c42 46 115 53 174 53h45l-27 -164
c-2 -14 -8 -42 -8 -56c0 -24 11 -49 37 -49c69 0 88 124 88 176c0 182 -124 240 -202 240c-178 0 -254 -207 -254 -358c0 -158 74 -240 212 -240c88 0 161 29 234 76zM351 419l4 31c-77 -2 -127 -84 -127 -166c0 -18 8 -41 28 -41c30 0 76 30 95 176z" />
    <glyph glyph-name="A" unicode="A" 
d="M301 780l255 -780h-81l-64 212h-219l-64 -212h-81zM301 566l-91 -291h183z" />
    <glyph glyph-name="B" unicode="B" 
d="M314 0h-206v720h151c83 0 226 -10 226 -182c0 -69 -36 -122 -95 -155c82 -40 126 -94 126 -187c0 -105 -76 -196 -202 -196zM183 657v-251h87c67 0 140 49 140 135c0 119 -100 116 -146 116h-81zM183 63h126c66 0 132 39 132 129c0 80 -50 151 -164 151h-94v-280z" />
    <glyph glyph-name="C" unicode="C" 
d="M505 564h-75c-1 60 -44 107 -105 107c-152 0 -162 -206 -162 -317c0 -105 11 -305 155 -305c75 0 120 56 121 127h75c-8 -117 -79 -190 -199 -190c-198 0 -227 217 -227 370c0 158 33 378 236 378c100 0 175 -70 181 -170z" />
    <glyph glyph-name="D" unicode="D" 
d="M112 0v720h183c139 0 232 -79 232 -360c0 -277 -86 -360 -243 -360h-172zM187 657v-594h92c104 0 173 29 173 297c0 276 -79 297 -175 297h-90z" />
    <glyph glyph-name="E" unicode="E" 
d="M513 720v-63h-299v-256h215v-63h-215v-275h306v-63h-381v720h374z" />
    <glyph glyph-name="F" unicode="F" 
d="M538 720v-63h-311v-250h233v-63h-233v-344h-75v720h386z" />
    <glyph glyph-name="G" unicode="G" 
d="M457 297h-170v63h245v-374h-75v70c-37 -45 -92 -70 -151 -70c-58 0 -217 10 -217 358c0 285 87 390 227 390c122 0 179 -86 181 -198h-75c6 66 -26 135 -102 135c-150 0 -156 -209 -156 -316c0 -100 5 -306 146 -306c70 0 147 56 147 200v48z" />
    <glyph glyph-name="H" unicode="H" 
d="M175 720v-315h250v315h75v-720h-75v342h-250v-342h-75v720h75z" />
    <glyph glyph-name="I" unicode="I" 
d="M435 720v-63h-98v-594h98v-63h-270v63h97v594h-97v63h270z" />
    <glyph glyph-name="J" unicode="J" 
d="M262 657v63h208v-463c0 -89 2 -271 -204 -271c-117 0 -191 66 -191 222v101h75v-129c0 -83 40 -131 114 -131c86 0 131 49 131 152v456h-133z" />
    <glyph glyph-name="K" unicode="K" 
d="M204 720v-317c52 6 175 131 245 326l74 -39l-59 -99c-95 -159 -144 -199 -190 -228l311 -363h-100l-275 339h-6v-339h-75v720h75z" />
    <glyph glyph-name="L" unicode="L" 
d="M230 720v-657h312v-63h-387v720h75z" />
    <glyph glyph-name="M" unicode="M" 
d="M300 361l151 359h74v-720h-75v548h-2l-148 -353l-147 353l-2 -2v-546h-75v720h73z" />
    <glyph glyph-name="N" unicode="N" 
d="M115 0v720h87l219 -538h3v538h75v-727h-71l-236 581l-2 -2v-572h-75z" />
    <glyph glyph-name="O" unicode="O" 
d="M79 360c0 301 100 374 221 374c210 0 221 -240 221 -374c0 -96 7 -374 -221 -374c-222 0 -221 272 -221 374zM300 49c75 0 146 50 146 311c0 66 10 311 -146 311c-160 0 -146 -269 -146 -311c0 -82 -4 -311 146 -311z" />
    <glyph glyph-name="P" unicode="P" 
d="M134 0v720h173c130 0 206 -78 206 -220c0 -152 -100 -217 -241 -217h-63v-283h-75zM209 346h83c87 0 146 52 146 153c0 113 -52 158 -141 158h-88v-311z" />
    <glyph glyph-name="Q" unicode="Q" 
d="M300 -14c-228 0 -222 282 -222 374c0 302 101 374 222 374c236 0 222 -302 222 -374c0 -133 -10 -236 -72 -306l88 -114h-92l-50 70c-29 -16 -63 -24 -96 -24zM153 360c0 -256 72 -311 147 -311c88 0 147 75 147 311c0 256 -71 311 -147 311c-164 0 -147 -281 -147 -311z
" />
    <glyph glyph-name="R" unicode="R" 
d="M131 0v720h187c180 0 196 -162 196 -204c0 -74 -28 -142 -128 -199l194 -317h-91l-175 300c-36 -1 -72 -1 -108 -2v-298h-75zM206 362h71c102 0 162 52 162 158c0 96 -40 137 -159 137h-74v-295z" />
    <glyph glyph-name="S" unicode="S" 
d="M502 644l-45 -54c-44 39 -94 81 -156 81c-64 0 -116 -44 -116 -110c0 -38 7 -72 104 -131l57 -35c132 -81 168 -119 168 -203c0 -129 -86 -206 -212 -206c-93 0 -162 45 -218 117l58 46c35 -56 91 -100 160 -100c75 0 137 56 137 133c0 58 -4 78 -131 154l-65 39
c-71 42 -133 91 -133 181c0 113 86 178 194 178c75 0 144 -40 198 -90z" />
    <glyph glyph-name="T" unicode="T" 
d="M541 720v-63h-205v-657h-75v657h-201v63h481z" />
    <glyph glyph-name="U" unicode="U" 
d="M424 720h75v-531c0 -136 -102 -203 -199 -203c-78 0 -200 44 -200 243v491h75v-531c0 -104 67 -140 125 -140c92 0 124 68 124 149v522z" />
    <glyph glyph-name="V" unicode="V" 
d="M297 109l129 611h83l-163 -727h-103l-160 727h82l130 -611h2z" />
    <glyph glyph-name="W" unicode="W" 
d="M297 519l113 -361h2l36 562h81l-55 -727h-86l-91 312l-92 -312h-83l-60 727h81l38 -562h2z" />
    <glyph glyph-name="X" unicode="X" 
d="M92 720h86l122 -279l122 279h87l-170 -357l175 -363h-87l-127 288l-127 -288h-86l176 364z" />
    <glyph glyph-name="Y" unicode="Y" 
d="M282 394l138 326h83l-184 -416v-304h-75v304l-184 416h83z" />
    <glyph glyph-name="Z" unicode="Z" 
d="M114 720h375v-53l-296 -604h320v-63h-410v54l300 603h-289v63z" />
    <glyph glyph-name="bracketleft" unicode="[" 
d="M460 -112h-292v854h292v-63h-217v-728h217v-63z" />
    <glyph glyph-name="backslash" unicode="\" 
d="M413 -27l-301 774h75l301 -774h-75z" />
    <glyph glyph-name="bracketright" unicode="]" 
d="M139 -112v63h217v728h-217v63h292v-854h-292z" />
    <glyph glyph-name="asciicircum" unicode="^" 
d="M177 357h-74l164 323h66l164 -323h-74l-123 242z" />
    <glyph glyph-name="underscore" unicode="_" 
d="M600 -125h-600v50h600v-50z" />
    <glyph glyph-name="grave" unicode="`" 
d="M217 775l177 -142l-38 -49l-193 129z" />
    <glyph glyph-name="a" unicode="a" 
d="M157 443l-17 66c51 20 98 37 154 37c102 0 164 -84 164 -173v-232c0 -49 7 -99 23 -145l-70 -9l-19 67c-36 -43 -77 -65 -133 -65c-102 0 -159 80 -159 175c0 103 63 193 171 193c40 0 78 -12 112 -26v51c0 59 -36 101 -92 101c-47 0 -91 -22 -134 -40zM383 144v124
c-32 14 -66 26 -102 26c-76 0 -106 -66 -106 -134c0 -50 26 -108 84 -108s93 49 124 92z" />
    <glyph glyph-name="b" unicode="b" 
d="M114 742h75v-226c38 20 70 30 114 30c86 0 218 -70 218 -274c0 -210 -121 -283 -215 -283c-62 0 -86 21 -131 61l-16 -60l-71 9c22 63 26 131 26 199v544zM189 440v-294c23 -49 55 -94 116 -94c49 0 141 42 141 217c0 149 -75 214 -155 214c-37 0 -72 -19 -102 -43z" />
    <glyph glyph-name="c" unicode="c" 
d="M470 140l51 -53c-54 -58 -108 -98 -191 -98c-99 0 -231 61 -231 273c0 214 121 284 228 284c88 0 150 -48 197 -119l-65 -43c-27 54 -66 99 -132 99c-76 0 -153 -56 -153 -214c0 -167 86 -217 155 -217c59 0 105 45 141 88z" />
    <glyph glyph-name="d" unicode="d" 
d="M510 -2l-71 -9l-16 60c-45 -40 -69 -60 -131 -60c-94 0 -214 72 -214 282c0 204 130 275 217 275c45 0 76 -11 113 -31v227h75v-551c0 -66 6 -132 27 -193zM408 144v295c-29 24 -63 44 -101 44c-80 0 -154 -67 -154 -215c0 -174 91 -216 141 -216c58 0 94 43 114 92z" />
    <glyph glyph-name="e" unicode="e" 
d="M518 248h-356c4 -147 70 -196 152 -196c59 0 118 27 167 57l32 -67c-67 -30 -131 -53 -205 -53c-158 0 -221 136 -221 275c0 140 65 282 225 282c178 0 206 -199 206 -257v-41zM161 311h282c-3 88 -53 172 -137 172s-125 -64 -145 -172z" />
    <glyph glyph-name="f" unicode="f" 
d="M535 697v-76c-42 18 -90 50 -136 50c-66 0 -95 -41 -95 -110v-60h172v-63h-172v-438h-75v438h-133v63h133v51c0 127 86 182 165 182c49 0 97 -17 141 -37z" />
    <glyph glyph-name="g" unicode="g" 
d="M439 546h71c-18 -65 -23 -132 -23 -200v-294c0 -167 -122 -215 -199 -215c-63 0 -128 36 -170 82l53 46c30 -39 76 -65 126 -65c79 0 115 72 115 148v42c-41 -27 -75 -45 -128 -45c-131 0 -194 125 -194 241c0 127 56 260 204 260c51 0 90 -17 131 -47zM412 178v239
c-24 36 -71 66 -117 66c-99 0 -130 -106 -130 -188c0 -104 50 -187 123 -187c46 0 101 31 124 70z" />
    <glyph glyph-name="h" unicode="h" 
d="M118 0v742h75v-284c38 51 95 88 161 88c64 0 138 -20 138 -239v-307h-75v313c0 49 0 170 -68 170c-56 0 -106 -50 -129 -97c-29 -60 -27 -120 -27 -187v-199h-75z" />
    <glyph glyph-name="i" unicode="i" 
d="M276 0v472h-152v63h227v-535h-75zM311 734c35 0 63 -27 63 -63s-28 -63 -63 -63s-63 27 -63 63s28 63 63 63z" />
    <glyph glyph-name="j" unicode="j" 
d="M73 52h75c0 -99 20 -152 94 -152c78 0 96 94 96 96v476h-155v63h230v-524c0 -119 -95 -174 -170 -174c-115 0 -170 85 -170 215zM370 734c35 0 62 -27 62 -63s-27 -63 -62 -63c-36 0 -64 27 -64 63s29 63 64 63z" />
    <glyph glyph-name="k" unicode="k" 
d="M416 535h95c-106 -123 -137 -165 -216 -245l263 -290h-99l-210 246l-34 -34v-212h-75v742h75v-441c71 73 144 148 201 234z" />
    <glyph glyph-name="l" unicode="l" 
d="M268 0v679h-152v63h227v-742h-75z" />
    <glyph glyph-name="m" unicode="m" 
d="M68 0v369c0 73 -10 121 -22 177h75l11 -48c32 28 60 48 105 48c49 0 62 -12 91 -49c31 28 59 50 103 50c72 0 118 -47 118 -119v-428h-75v428c0 36 -19 56 -49 56c-34 0 -63 -28 -79 -56v-428h-75v422c0 28 -8 61 -42 61c-36 0 -72 -32 -86 -65v-418h-75z" />
    <glyph glyph-name="n" unicode="n" 
d="M186 223v-223h-75v269c0 90 -4 181 -24 266h72l17 -98c38 63 107 109 182 109c85 0 129 -78 129 -169v-377h-75v355c0 51 0 128 -66 128c-71 0 -160 -72 -160 -260z" />
    <glyph glyph-name="o" unicode="o" 
d="M300 -11c-93 0 -212 62 -212 278c0 207 110 279 212 279c189 0 213 -192 213 -279c0 -207 -110 -278 -213 -278zM300 52c117 0 138 123 138 215s-21 216 -138 216s-137 -124 -137 -216s20 -215 137 -215z" />
    <glyph glyph-name="p" unicode="p" 
d="M159 548l16 -62c45 40 69 60 131 60c94 0 215 -72 215 -282c0 -203 -132 -275 -218 -275c-44 0 -76 11 -114 31v-225h-75v543c0 68 -4 136 -26 201zM189 390v-294c30 -24 65 -44 102 -44c88 0 155 76 155 215c0 175 -92 216 -141 216c-61 0 -93 -44 -116 -93z" />
    <glyph glyph-name="q" unicode="q" 
d="M483 -205h-75v225c-37 -20 -68 -31 -113 -31c-87 0 -218 71 -218 275c0 210 121 282 215 282c62 0 86 -20 131 -60l16 62l71 -9c-21 -63 -27 -129 -27 -195v-549zM408 96v299c-26 48 -55 88 -114 88c-50 0 -142 -41 -142 -216c0 -139 67 -215 155 -215c38 0 72 20 101 44
z" />
    <glyph glyph-name="r" unicode="r" 
d="M232 223v-223h-75v307c0 89 -7 161 -21 228h73l17 -102c41 63 86 113 166 113c100 0 124 -98 124 -179h-75c-2 40 4 116 -53 116c-55 0 -156 -84 -156 -260z" />
    <glyph glyph-name="s" unicode="s" 
d="M464 484l-33 -61c-42 30 -89 60 -143 60c-45 0 -87 -33 -87 -81c0 -52 62 -78 103 -93c84 -31 172 -66 172 -172c0 -88 -80 -148 -163 -148c-81 0 -161 40 -220 93l41 60c42 -45 111 -90 174 -90c50 0 93 28 93 82c0 70 -56 89 -111 110c-76 29 -164 65 -164 161
c0 78 72 141 165 141c67 0 120 -24 173 -62z" />
    <glyph glyph-name="t" unicode="t" 
d="M462 535v-63h-191v-305c0 -52 1 -115 69 -115c57 0 92 47 113 94l72 -18c-36 -77 -97 -139 -187 -139c-87 0 -142 42 -142 202v281h-115v63h115v164h75v-164h191z" />
    <glyph glyph-name="u" unicode="u" 
d="M415 316v219h75v-259c0 -93 2 -185 23 -276h-71l-17 103c-35 -59 -107 -114 -176 -114c-95 0 -135 81 -135 174v372h75v-350c0 -50 0 -133 66 -133c74 0 160 83 160 264z" />
    <glyph glyph-name="v" unicode="v" 
d="M429 535h78l-166 -542h-85l-166 542h78l130 -415z" />
    <glyph glyph-name="w" unicode="w" 
d="M129 -7l-94 542h84l61 -401h2l77 270h73l77 -270h2l61 401h84l-94 -542h-80l-87 290l-86 -290h-80z" />
    <glyph glyph-name="x" unicode="x" 
d="M507 535l-166 -246l211 -289h-95l-158 231l-156 -231h-95l210 286l-170 249h87l125 -188l122 188h85z" />
    <glyph glyph-name="y" unicode="y" 
d="M445 535h80l-198 -502c-30 -77 -78 -196 -176 -196c-69 0 -117 53 -136 116l63 33c12 -32 33 -86 73 -86c42 0 67 58 81 90l35 81l-172 464h81l130 -364z" />
    <glyph glyph-name="z" unicode="z" 
d="M496 535v-56l-307 -416h319v-63h-416v55l309 417h-265v63h360z" />
    <glyph glyph-name="braceleft" unicode="{" 
d="M488 742v-28h-33c-98 0 -127 -38 -127 -92v-180c0 -51 1 -91 -50 -119c51 -27 50 -67 50 -118v-180c0 -54 29 -92 127 -92h33v-28h-55c-142 0 -180 46 -180 156v169c0 81 -60 74 -119 93c59 20 119 13 119 94v169c0 110 38 156 180 156h55z" />
    <glyph glyph-name="bar" unicode="|" 
d="M267 -288v1080h66v-1080h-66z" />
    <glyph glyph-name="braceright" unicode="}" 
d="M114 714v28h55c142 0 180 -46 180 -156v-169c0 -81 60 -74 119 -94c-59 -19 -119 -12 -119 -93v-169c0 -110 -38 -156 -180 -156h-55v28h33c98 0 127 38 127 92v180c0 51 -1 91 50 118c-51 28 -50 68 -50 119v180c0 54 -29 92 -127 92h-33z" />
    <glyph glyph-name="asciitilde" unicode="~" 
d="M183 434c37 0 84 -18 127 -37s83 -37 107 -37c51 0 93 57 112 98l52 -38c-31 -61 -89 -126 -163 -126c-40 0 -106 30 -144 45c-26 11 -63 29 -91 29c-59 0 -86 -63 -113 -106l-52 39c38 65 81 133 165 133z" />
    <glyph glyph-name="uni00A0" unicode="&#xa0;" 
 />
    <glyph glyph-name="exclamdown" unicode="&#xa1;" 
d="M251 0l14 501h67l17 -501h-98zM219 657c0 44 38 77 81 77s80 -33 80 -77s-37 -78 -80 -78c-44 0 -81 34 -81 78z" />
    <glyph glyph-name="cent" unicode="&#xa2;" 
d="M526 533l-68 -45c-24 45 -47 81 -96 96v-422c43 13 78 48 108 84l51 -53c-44 -46 -99 -85 -159 -95v-128h-75v127c-135 28 -188 141 -188 271c0 135 46 249 188 280v94h75v-93c77 -15 117 -53 164 -116zM287 164v419c-92 -27 -113 -122 -113 -208c0 -87 21 -181 113 -211
z" />
    <glyph glyph-name="sterling" unicode="&#xa3;" 
d="M246 429h200v-63h-181c11 -44 24 -88 24 -133c0 -58 -23 -98 -51 -151c21 4 42 9 64 9c29 0 53 -9 75 -19c20 -9 41 -14 57 -14c29 0 54 26 75 43l43 -48c-29 -31 -68 -58 -112 -58c-30 0 -54 9 -76 17c-23 9 -44 16 -72 16c-47 0 -83 -20 -123 -42l-40 51
c39 79 85 124 85 191c0 38 -14 99 -25 138h-116v63h98c-12 38 -23 78 -23 119c0 107 92 172 193 172c81 0 158 -48 188 -124l-70 -23c-24 50 -61 84 -120 84c-31 0 -61 -11 -84 -33c-25 -23 -32 -51 -32 -84c0 -39 11 -70 23 -111z" />
    <glyph glyph-name="currency" unicode="&#xa4;" 
d="M120 506l-109 107l33 32l108 -107c42 34 94 52 148 52s106 -18 148 -52l108 107l33 -32l-109 -107c33 -45 50 -90 50 -146s-17 -101 -50 -146l109 -107l-33 -32l-108 107c-42 -34 -94 -52 -148 -52s-106 18 -148 52l-108 -107l-33 32l109 107c-33 45 -50 90 -50 146
s17 101 50 146zM300 169c108 0 191 83 191 191s-83 192 -191 192s-191 -84 -191 -192s83 -191 191 -191z" />
    <glyph glyph-name="yen" unicode="&#xa5;" 
d="M319 289h119v-63h-119v-226h-75v226h-116v63h116v15l-184 416h86l137 -325l134 325h86l-184 -416v-15z" />
    <glyph glyph-name="brokenbar" unicode="&#xa6;" 
d="M267 325v350h66v-350h-66zM267 -175v350h66v-350h-66z" />
    <glyph glyph-name="section" unicode="&#xa7;" 
d="M390 338l-175 136c-25 -12 -41 -36 -41 -63c0 -26 16 -46 36 -62l175 -135c24 11 40 35 40 62s-16 47 -35 62zM292 502l59 -44c58 -43 149 -95 149 -177c0 -52 -32 -81 -72 -109c17 -26 33 -47 33 -79c0 -92 -71 -140 -158 -140c-91 0 -178 50 -165 175h72
c-4 -65 17 -112 91 -112c43 0 85 21 85 69c0 50 -43 73 -79 100l-58 44c-58 44 -150 96 -150 177c0 52 32 81 72 109c-17 26 -32 47 -32 79c0 92 70 140 157 140c91 0 179 -49 166 -175h-73c4 65 -16 112 -90 112c-43 0 -85 -21 -85 -68c0 -50 43 -75 78 -101z" />
    <glyph glyph-name="dieresis" unicode="&#xa8;" 
d="M141 678c0 38 32 67 69 67s69 -29 69 -67s-32 -67 -69 -67s-69 29 -69 67zM320 678c0 38 32 67 69 67s69 -29 69 -67s-32 -67 -69 -67s-69 29 -69 67z" />
    <glyph glyph-name="copyright" unicode="&#xa9;" 
d="M300 734c160 0 290 -168 290 -374s-130 -374 -290 -374c-161 0 -290 168 -290 374s129 374 290 374zM300 659c-108 0 -215 -121 -215 -299c0 -164 95 -299 215 -299c108 0 215 131 215 299c0 208 -119 299 -215 299zM378 293h69c-7 -92 -67 -148 -135 -148
c-97 0 -160 98 -160 218c0 125 60 216 159 216c70 0 125 -53 136 -140h-69c-6 45 -32 71 -68 71c-62 0 -89 -70 -89 -145c0 -71 31 -151 91 -151c35 0 64 34 66 79z" />
    <glyph glyph-name="ordfeminine" unicode="&#xaa;" 
d="M423 393l-61 -8l-10 31c-28 -20 -43 -29 -78 -29c-70 0 -108 51 -108 117c0 75 52 120 124 120c18 0 35 -3 52 -7c2 28 -12 58 -44 58c-31 0 -65 -20 -98 -31l-11 71c36 9 73 19 110 19c74 0 109 -56 109 -133v-114c0 -21 4 -61 15 -94zM342 495v59c-17 6 -35 11 -53 11
c-40 0 -57 -31 -57 -66c0 -25 14 -53 43 -53c28 0 51 27 67 49zM425 319v-59h-261v59h261z" />
    <glyph glyph-name="guillemotleft" unicode="&#xab;" 
d="M534 615l47 -48l-224 -211l224 -211l-46 -50l-274 261zM292 615l47 -48l-224 -211l224 -211l-47 -50l-273 261z" />
    <glyph glyph-name="logicalnot" unicode="&#xac;" 
d="M505 161v225h-480v66h550v-291h-70z" />
    <glyph glyph-name="uni00AD" unicode="&#xad;" 
d="M430 327h-260v63h260v-63z" />
    <glyph glyph-name="registered" unicode="&#xae;" 
d="M300 -14c-161 0 -290 167 -290 374s129 374 290 374c160 0 290 -167 290 -374s-130 -374 -290 -374zM300 61c74 0 215 77 215 299c0 180 -111 299 -215 299s-215 -113 -215 -299c0 -170 107 -299 215 -299zM368 328l76 -171h-71l-70 171h-60v-171h-63v403h152
c88 0 122 -33 122 -123c0 -74 -30 -103 -86 -109zM243 387h90c35 0 58 11 58 61c0 53 -43 53 -73 53h-75v-114z" />
    <glyph glyph-name="macron" unicode="&#xaf;" 
d="M455 610h-311v63h311v-63z" />
    <glyph glyph-name="degree" unicode="&#xb0;" 
d="M87 556c0 118 98 209 213 209c116 0 213 -91 213 -209c0 -117 -97 -208 -213 -208c-115 0 -213 91 -213 208zM167 556c0 -73 60 -132 133 -132s133 59 133 132c0 74 -60 133 -133 133s-133 -59 -133 -133z" />
    <glyph glyph-name="plusminus" unicode="&#xb1;" 
d="M575 444v-66h-240v-237h-70v237h-240v66h240v237h70v-237h240zM575 105v-66h-550v66h550z" />
    <glyph glyph-name="twosuperior" unicode="&#xb2;" 
d="M89 392h172v-42h-222v22c0 82 37 120 96 169c28 23 75 60 75 99c0 32 -18 52 -50 52c-45 0 -61 -38 -62 -76h-51c3 67 41 118 113 118c60 0 100 -35 100 -95c0 -105 -165 -141 -171 -247z" />
    <glyph glyph-name="threesuperior" unicode="&#xb3;" 
d="M117 530v42c40 -2 82 20 82 65c0 33 -28 55 -59 55c-32 0 -57 -28 -69 -55l-43 24c22 42 63 73 112 73c60 0 109 -39 109 -101c0 -33 -18 -61 -45 -78c40 -18 62 -53 62 -97c0 -69 -52 -115 -120 -115c-61 0 -93 27 -124 76l45 26c17 -37 35 -60 79 -60c41 0 70 27 70 68
c0 56 -31 76 -99 77z" />
    <glyph glyph-name="acute" unicode="&#xb4;" 
d="M383 775l54 -62l-193 -129l-38 49z" />
    <glyph glyph-name="mu" unicode="&#xb5;" 
d="M410 0v45c-25 -35 -65 -56 -108 -56c-44 0 -85 18 -111 52v-271h-75v765h75v-311c0 -142 62 -172 106 -172c41 0 113 26 113 179v304h75v-535h-75z" />
    <glyph glyph-name="paragraph" unicode="&#xb6;" 
d="M265 -109v431c-118 -4 -217 76 -217 198c0 92 52 200 249 200h261v-63h-46v-766h-75v766h-97v-766h-75z" />
    <glyph glyph-name="periodcentered" unicode="&#xb7;" 
d="M220 360c0 43 37 80 80 80s80 -37 80 -80s-37 -80 -80 -80s-80 37 -80 80z" />
    <glyph glyph-name="cedilla" unicode="&#xb8;" 
d="M351 38l-23 -69c46 -2 87 -26 87 -77c0 -52 -54 -81 -101 -81c-36 0 -77 14 -110 29l22 55c25 -11 52 -21 79 -21c15 0 35 4 35 22c0 23 -28 23 -93 30l40 112h64z" />
    <glyph glyph-name="onesuperior" unicode="&#xb9;" 
d="M176 742v-354h68v-42h-188v42h70v293l-73 -22v45z" />
    <glyph glyph-name="ordmasculine" unicode="&#xba;" 
d="M431 319v-59h-261v59h261zM300 387c-89 0 -143 69 -143 173c0 94 44 174 143 174c92 0 143 -73 143 -173c0 -94 -44 -174 -143 -174zM300 446c63 0 77 64 77 114c0 51 -14 115 -77 115s-77 -64 -77 -115c0 -50 14 -114 77 -114z" />
    <glyph glyph-name="guillemotright" unicode="&#xbb;" 
d="M66 615l273 -259l-273 -261l-47 50l224 211l-224 211zM308 615l274 -259l-274 -261l-47 50l224 211l-224 211z" />
    <glyph glyph-name="onequarter" unicode="&#xbc;" 
d="M469 137v168h-2l-88 -168h90zM463 720h58l-330 -720h-56zM519 384v-247h54v-42h-54v-95h-50v95h-149v31l140 258h59zM176 742v-354h68v-42h-188v42h70v293l-73 -22v45z" />
    <glyph glyph-name="onehalf" unicode="&#xbd;" 
d="M446 720h58l-330 -720h-56zM391 42h172v-42h-222v22c0 82 37 120 96 169c28 23 75 60 75 99c0 32 -18 52 -50 52c-45 0 -61 -38 -62 -76h-51c3 67 41 118 113 118c60 0 100 -35 100 -95c0 -105 -165 -141 -171 -247zM176 742v-354h68v-42h-188v42h70v293l-73 -22v45z" />
    <glyph glyph-name="threequarters" unicode="&#xbe;" 
d="M469 137v168h-2l-88 -168h90zM519 384v-247h54v-42h-54v-95h-50v95h-149v31l140 258h59zM460 720h58l-330 -720h-56zM117 530v42c40 -2 82 20 82 65c0 33 -28 55 -59 55c-32 0 -57 -28 -69 -55l-43 24c22 42 63 73 112 73c60 0 109 -39 109 -101c0 -33 -18 -61 -45 -78
c40 -18 62 -53 62 -97c0 -69 -52 -115 -120 -115c-61 0 -93 27 -124 76l45 26c17 -37 35 -60 79 -60c41 0 70 27 70 68c0 56 -31 76 -99 77z" />
    <glyph glyph-name="questiondown" unicode="&#xbf;" 
d="M269 504h75v-106c0 -60 -18 -83 -89 -136c-36 -28 -54 -52 -54 -100c0 -66 39 -113 107 -113s104 47 104 110h75c-5 -106 -73 -173 -180 -173c-110 0 -181 68 -181 179c0 65 23 99 64 135c59 53 79 50 79 98v106zM218 657c0 44 38 77 81 77s80 -33 80 -77
s-37 -78 -80 -78c-44 0 -81 34 -81 78z" />
    <glyph glyph-name="Agrave" unicode="&#xc0;" 
d="M301 780l255 -780h-81l-64 212h-219l-64 -212h-81zM301 566l-91 -291h183zM217 960l177 -142l-38 -49l-193 129z" />
    <glyph glyph-name="Aacute" unicode="&#xc1;" 
d="M301 780l255 -780h-81l-64 212h-219l-64 -212h-81zM301 566l-91 -291h183zM383 960l54 -62l-193 -129l-38 49z" />
    <glyph glyph-name="Acircumflex" unicode="&#xc2;" 
d="M301 780l255 -780h-81l-64 212h-219l-64 -212h-81zM301 566l-91 -291h183zM300 869l-139 -103l-40 43l179 153l179 -153l-39 -43z" />
    <glyph glyph-name="Atilde" unicode="&#xc3;" 
d="M301 780l255 -780h-81l-64 212h-219l-64 -212h-81zM301 566l-91 -291h183zM437 919l61 -25c-18 -51 -59 -95 -116 -95c-34 0 -59 14 -87 31c-20 13 -44 31 -69 31c-33 0 -52 -42 -63 -68l-62 22c25 55 59 109 127 109c35 0 58 -15 87 -32c16 -9 46 -30 65 -30
c33 0 46 32 57 57z" />
    <glyph glyph-name="Adieresis" unicode="&#xc4;" 
d="M301 780l255 -780h-81l-64 212h-219l-64 -212h-81zM301 566l-91 -291h183zM141 863c0 38 32 67 69 67s69 -29 69 -67s-32 -67 -69 -67s-69 29 -69 67zM320 863c0 38 32 67 69 67s69 -29 69 -67s-32 -67 -69 -67s-69 29 -69 67z" />
    <glyph glyph-name="Aring" unicode="&#xc5;" 
d="M301 780l255 -780h-81l-64 212h-219l-64 -212h-81zM301 566l-91 -291h183zM209 878c0 52 43 95 94 95s94 -43 94 -95s-43 -95 -94 -95s-94 43 -94 95zM272 878c0 -17 14 -32 31 -32s31 15 31 32s-14 32 -31 32s-31 -15 -31 -32z" />
    <glyph glyph-name="AE" unicode="&#xc6;" 
d="M549 720v-63h-203v-253h138v-63h-138v-278h211v-63h-286v215h-116l-57 -215h-78l199 720h330zM271 278v379h-2l-97 -379h99z" />
    <glyph glyph-name="Ccedilla" unicode="&#xc7;" 
d="M505 564h-75c-1 60 -44 107 -105 107c-152 0 -162 -206 -162 -317c0 -105 11 -305 155 -305c75 0 120 56 121 127h75c-8 -110 -71 -181 -180 -188l-6 -19c46 -2 87 -26 87 -77c0 -52 -54 -81 -101 -81c-36 0 -77 14 -110 29l22 55c25 -11 52 -21 79 -21c15 0 35 4 35 22
c0 23 -28 23 -93 30l23 65c-157 29 -182 224 -182 365c0 158 33 378 236 378c100 0 175 -70 181 -170z" />
    <glyph glyph-name="Egrave" unicode="&#xc8;" 
d="M513 720v-63h-299v-256h215v-63h-215v-275h306v-63h-381v720h374zM237 960l177 -142l-38 -49l-193 129z" />
    <glyph glyph-name="Eacute" unicode="&#xc9;" 
d="M513 720v-63h-299v-256h215v-63h-215v-275h306v-63h-381v720h374zM383 960l54 -62l-193 -129l-38 49z" />
    <glyph glyph-name="Ecircumflex" unicode="&#xca;" 
d="M513 720v-63h-299v-256h215v-63h-215v-275h306v-63h-381v720h374zM315 869l-139 -103l-40 43l179 153l179 -153l-39 -43z" />
    <glyph glyph-name="Edieresis" unicode="&#xcb;" 
d="M513 720v-63h-299v-256h215v-63h-215v-275h306v-63h-381v720h374zM156 863c0 38 32 67 69 67s69 -29 69 -67s-32 -67 -69 -67s-69 29 -69 67zM335 863c0 38 32 67 69 67s69 -29 69 -67s-32 -67 -69 -67s-69 29 -69 67z" />
    <glyph glyph-name="Igrave" unicode="&#xcc;" 
d="M435 720v-63h-98v-594h98v-63h-270v63h97v594h-97v63h270zM217 960l177 -142l-38 -49l-193 129z" />
    <glyph glyph-name="Iacute" unicode="&#xcd;" 
d="M435 720v-63h-98v-594h98v-63h-270v63h97v594h-97v63h270zM383 960l54 -62l-193 -129l-38 49z" />
    <glyph glyph-name="Icircumflex" unicode="&#xce;" 
d="M435 720v-63h-98v-594h98v-63h-270v63h97v594h-97v63h270zM300 869l-139 -103l-40 43l179 153l179 -153l-39 -43z" />
    <glyph glyph-name="Idieresis" unicode="&#xcf;" 
d="M435 720v-63h-98v-594h98v-63h-270v63h97v594h-97v63h270zM141 863c0 38 32 67 69 67s69 -29 69 -67s-32 -67 -69 -67s-69 29 -69 67zM320 863c0 38 32 67 69 67s69 -29 69 -67s-32 -67 -69 -67s-69 29 -69 67z" />
    <glyph glyph-name="Eth" unicode="&#xd0;" 
d="M112 405v315h183c139 0 232 -79 232 -360c0 -277 -86 -360 -243 -360h-172v342h-96v63h96zM187 657v-252h121v-63h-121v-279h92c104 0 173 29 173 297c0 276 -79 297 -175 297h-90z" />
    <glyph glyph-name="Ntilde" unicode="&#xd1;" 
d="M115 0v720h87l219 -538h3v538h75v-727h-71l-236 581l-2 -2v-572h-75zM437 919l61 -25c-18 -51 -59 -95 -116 -95c-34 0 -59 14 -87 31c-20 13 -44 31 -69 31c-33 0 -52 -42 -63 -68l-62 22c25 55 59 109 127 109c35 0 58 -15 87 -32c16 -9 46 -30 65 -30
c33 0 46 32 57 57z" />
    <glyph glyph-name="Ograve" unicode="&#xd2;" 
d="M79 360c0 301 100 374 221 374c210 0 221 -240 221 -374c0 -96 7 -374 -221 -374c-222 0 -221 272 -221 374zM300 49c75 0 146 50 146 311c0 66 10 311 -146 311c-160 0 -146 -269 -146 -311c0 -82 -4 -311 146 -311zM237 960l177 -142l-38 -49l-193 129z" />
    <glyph glyph-name="Oacute" unicode="&#xd3;" 
d="M79 360c0 301 100 374 221 374c210 0 221 -240 221 -374c0 -96 7 -374 -221 -374c-222 0 -221 272 -221 374zM300 49c75 0 146 50 146 311c0 66 10 311 -146 311c-160 0 -146 -269 -146 -311c0 -82 -4 -311 146 -311zM383 960l54 -62l-193 -129l-38 49z" />
    <glyph glyph-name="Ocircumflex" unicode="&#xd4;" 
d="M79 360c0 301 100 374 221 374c210 0 221 -240 221 -374c0 -96 7 -374 -221 -374c-222 0 -221 272 -221 374zM300 49c75 0 146 50 146 311c0 66 10 311 -146 311c-160 0 -146 -269 -146 -311c0 -82 -4 -311 146 -311zM300 869l-139 -103l-40 43l179 153l179 -153l-39 -43
z" />
    <glyph glyph-name="Otilde" unicode="&#xd5;" 
d="M79 360c0 301 100 374 221 374c210 0 221 -240 221 -374c0 -96 7 -374 -221 -374c-222 0 -221 272 -221 374zM300 49c75 0 146 50 146 311c0 66 10 311 -146 311c-160 0 -146 -269 -146 -311c0 -82 -4 -311 146 -311zM437 919l61 -25c-18 -51 -59 -95 -116 -95
c-34 0 -59 14 -87 31c-20 13 -44 31 -69 31c-33 0 -52 -42 -63 -68l-62 22c25 55 59 109 127 109c35 0 58 -15 87 -32c16 -9 46 -30 65 -30c33 0 46 32 57 57z" />
    <glyph glyph-name="Odieresis" unicode="&#xd6;" 
d="M79 360c0 301 100 374 221 374c210 0 221 -240 221 -374c0 -96 7 -374 -221 -374c-222 0 -221 272 -221 374zM300 49c75 0 146 50 146 311c0 66 10 311 -146 311c-160 0 -146 -269 -146 -311c0 -82 -4 -311 146 -311zM141 863c0 38 32 67 69 67s69 -29 69 -67
s-32 -67 -69 -67s-69 29 -69 67zM320 863c0 38 32 67 69 67s69 -29 69 -67s-32 -67 -69 -67s-69 29 -69 67z" />
    <glyph glyph-name="multiply" unicode="&#xd7;" 
d="M300 312l-227 -228l-48 48l228 228l-228 228l48 48l227 -228l227 228l48 -48l-228 -228l228 -228l-48 -48z" />
    <glyph glyph-name="Oslash" unicode="&#xd8;" 
d="M166 191l238 419c-24 37 -60 61 -104 61c-75 0 -146 -50 -146 -311c0 -56 1 -114 12 -169zM434 532l-238 -420c22 -37 60 -63 104 -63c72 0 147 46 147 311c0 57 -2 116 -13 172zM441 677l28 49l56 -33l-43 -75c37 -80 40 -172 40 -258c0 -132 -10 -374 -222 -374
c-54 0 -104 21 -142 59l-42 -73l-56 33l57 100c-35 79 -38 169 -38 255c0 66 -13 374 221 374c53 0 104 -20 141 -57z" />
    <glyph glyph-name="Ugrave" unicode="&#xd9;" 
d="M424 720h75v-531c0 -136 -102 -203 -199 -203c-78 0 -200 44 -200 243v491h75v-531c0 -104 67 -140 125 -140c92 0 124 68 124 149v522zM217 960l177 -142l-38 -49l-193 129z" />
    <glyph glyph-name="Uacute" unicode="&#xda;" 
d="M424 720h75v-531c0 -136 -102 -203 -199 -203c-78 0 -200 44 -200 243v491h75v-531c0 -104 67 -140 125 -140c92 0 124 68 124 149v522zM383 960l54 -62l-193 -129l-38 49z" />
    <glyph glyph-name="Ucircumflex" unicode="&#xdb;" 
d="M424 720h75v-531c0 -136 -102 -203 -199 -203c-78 0 -200 44 -200 243v491h75v-531c0 -104 67 -140 125 -140c92 0 124 68 124 149v522zM300 869l-139 -103l-40 43l179 153l179 -153l-39 -43z" />
    <glyph glyph-name="Udieresis" unicode="&#xdc;" 
d="M424 720h75v-531c0 -136 -102 -203 -199 -203c-78 0 -200 44 -200 243v491h75v-531c0 -104 67 -140 125 -140c92 0 124 68 124 149v522zM141 863c0 38 32 67 69 67s69 -29 69 -67s-32 -67 -69 -67s-69 29 -69 67zM320 863c0 38 32 67 69 67s69 -29 69 -67
s-32 -67 -69 -67s-69 29 -69 67z" />
    <glyph glyph-name="Yacute" unicode="&#xdd;" 
d="M282 394l138 326h83l-184 -416v-304h-75v304l-184 416h83zM383 960l54 -62l-193 -129l-38 49z" />
    <glyph glyph-name="Thorn" unicode="&#xde;" 
d="M134 0v720h75v-141h98c130 0 206 -78 206 -220c0 -152 -100 -217 -241 -217h-63v-142h-75zM209 205h83c87 0 146 52 146 153c0 113 -52 158 -141 158h-88v-311z" />
    <glyph glyph-name="germandbls" unicode="&#xdf;" 
d="M250 352v63c81 -1 147 50 147 135c0 61 -38 121 -103 121c-53 0 -83 -32 -83 -128v-543h-75v574c0 68 59 160 168 160c97 0 168 -89 168 -182c0 -71 -30 -121 -87 -162c81 -35 115 -103 115 -189c0 -170 -99 -212 -165 -212c-35 0 -68 14 -96 35l34 55
c20 -14 40 -27 65 -27c68 0 87 84 87 137c0 116 -63 165 -175 163z" />
    <glyph glyph-name="agrave" unicode="&#xe0;" 
d="M157 443l-17 66c51 20 98 37 154 37c102 0 164 -84 164 -173v-232c0 -49 7 -99 23 -145l-70 -9l-19 67c-36 -43 -77 -65 -133 -65c-102 0 -159 80 -159 175c0 103 63 193 171 193c40 0 78 -12 112 -26v51c0 59 -36 101 -92 101c-47 0 -91 -22 -134 -40zM383 144v124
c-32 14 -66 26 -102 26c-76 0 -106 -66 -106 -134c0 -50 26 -108 84 -108s93 49 124 92zM217 775l177 -142l-38 -49l-193 129z" />
    <glyph glyph-name="aacute" unicode="&#xe1;" 
d="M157 443l-17 66c51 20 98 37 154 37c102 0 164 -84 164 -173v-232c0 -49 7 -99 23 -145l-70 -9l-19 67c-36 -43 -77 -65 -133 -65c-102 0 -159 80 -159 175c0 103 63 193 171 193c40 0 78 -12 112 -26v51c0 59 -36 101 -92 101c-47 0 -91 -22 -134 -40zM383 144v124
c-32 14 -66 26 -102 26c-76 0 -106 -66 -106 -134c0 -50 26 -108 84 -108s93 49 124 92zM383 775l54 -62l-193 -129l-38 49z" />
    <glyph glyph-name="acircumflex" unicode="&#xe2;" 
d="M157 443l-17 66c51 20 98 37 154 37c102 0 164 -84 164 -173v-232c0 -49 7 -99 23 -145l-70 -9l-19 67c-36 -43 -77 -65 -133 -65c-102 0 -159 80 -159 175c0 103 63 193 171 193c40 0 78 -12 112 -26v51c0 59 -36 101 -92 101c-47 0 -91 -22 -134 -40zM383 144v124
c-32 14 -66 26 -102 26c-76 0 -106 -66 -106 -134c0 -50 26 -108 84 -108s93 49 124 92zM300 684l-139 -103l-40 43l179 153l179 -153l-39 -43z" />
    <glyph glyph-name="atilde" unicode="&#xe3;" 
d="M157 443l-17 66c51 20 98 37 154 37c102 0 164 -84 164 -173v-232c0 -49 7 -99 23 -145l-70 -9l-19 67c-36 -43 -77 -65 -133 -65c-102 0 -159 80 -159 175c0 103 63 193 171 193c40 0 78 -12 112 -26v51c0 59 -36 101 -92 101c-47 0 -91 -22 -134 -40zM383 144v124
c-32 14 -66 26 -102 26c-76 0 -106 -66 -106 -134c0 -50 26 -108 84 -108s93 49 124 92zM437 734l61 -25c-18 -51 -59 -95 -116 -95c-34 0 -59 14 -87 31c-20 13 -44 31 -69 31c-33 0 -52 -42 -63 -68l-62 22c25 55 59 109 127 109c35 0 58 -15 87 -32c16 -9 46 -30 65 -30
c33 0 46 32 57 57z" />
    <glyph glyph-name="adieresis" unicode="&#xe4;" 
d="M157 443l-17 66c51 20 98 37 154 37c102 0 164 -84 164 -173v-232c0 -49 7 -99 23 -145l-70 -9l-19 67c-36 -43 -77 -65 -133 -65c-102 0 -159 80 -159 175c0 103 63 193 171 193c40 0 78 -12 112 -26v51c0 59 -36 101 -92 101c-47 0 -91 -22 -134 -40zM383 144v124
c-32 14 -66 26 -102 26c-76 0 -106 -66 -106 -134c0 -50 26 -108 84 -108s93 49 124 92zM320 678c0 38 32 67 69 67s69 -29 69 -67s-32 -67 -69 -67s-69 29 -69 67zM141 678c0 38 32 67 69 67s69 -29 69 -67s-32 -67 -69 -67s-69 29 -69 67z" />
    <glyph glyph-name="aring" unicode="&#xe5;" 
d="M157 443l-17 66c51 20 98 37 154 37c102 0 164 -84 164 -173v-232c0 -49 7 -99 23 -145l-70 -9l-19 67c-36 -43 -77 -65 -133 -65c-102 0 -159 80 -159 175c0 103 63 193 171 193c40 0 78 -12 112 -26v51c0 59 -36 101 -92 101c-47 0 -91 -22 -134 -40zM383 144v124
c-32 14 -66 26 -102 26c-76 0 -106 -66 -106 -134c0 -50 26 -108 84 -108s93 49 124 92zM202 689c0 52 43 95 94 95s94 -43 94 -95s-43 -95 -94 -95s-94 43 -94 95zM265 689c0 -17 14 -32 31 -32s31 15 31 32s-14 32 -31 32s-31 -15 -31 -32z" />
    <glyph glyph-name="ae" unicode="&#xe6;" 
d="M334 312h145c-1 60 -16 171 -95 171c-35 0 -50 -22 -50 -83v-88zM259 158v116c-16 11 -35 17 -57 17c-69 0 -89 -77 -89 -132c0 -52 27 -107 85 -107c61 0 61 55 61 106zM334 249v-111c0 -40 4 -86 55 -86s106 35 149 61l27 -62c-55 -32 -115 -62 -181 -62
c-40 0 -61 10 -90 37c-31 -27 -65 -37 -106 -37c-99 0 -150 81 -150 173c0 140 93 192 152 192c25 0 49 -5 69 -10v33c0 36 0 106 -46 106c-45 0 -88 -37 -125 -60l-17 68c41 25 94 55 144 55c38 0 54 -11 83 -33c25 22 60 33 93 33c58 0 163 -34 163 -268v-29h-220z" />
    <glyph glyph-name="ccedilla" unicode="&#xe7;" 
d="M470 140l51 -53c-53 -57 -106 -97 -186 -98l-7 -20c46 -2 87 -26 87 -77c0 -52 -54 -81 -101 -81c-36 0 -77 14 -110 29l22 55c25 -11 52 -21 79 -21c15 0 35 4 35 22c0 23 -28 23 -93 30l25 71c-86 20 -173 93 -173 265c0 214 121 284 228 284c88 0 150 -48 197 -119
l-65 -43c-27 54 -66 99 -132 99c-76 0 -153 -56 -153 -214c0 -167 86 -217 155 -217c59 0 105 45 141 88z" />
    <glyph glyph-name="egrave" unicode="&#xe8;" 
d="M518 248h-356c4 -147 70 -196 152 -196c59 0 118 27 167 57l32 -67c-67 -30 -131 -53 -205 -53c-158 0 -221 136 -221 275c0 140 65 282 225 282c178 0 206 -199 206 -257v-41zM161 311h282c-3 88 -53 172 -137 172s-125 -64 -145 -172zM237 775l177 -142l-38 -49
l-193 129z" />
    <glyph glyph-name="eacute" unicode="&#xe9;" 
d="M518 248h-356c4 -147 70 -196 152 -196c59 0 118 27 167 57l32 -67c-67 -30 -131 -53 -205 -53c-158 0 -221 136 -221 275c0 140 65 282 225 282c178 0 206 -199 206 -257v-41zM161 311h282c-3 88 -53 172 -137 172s-125 -64 -145 -172zM383 775l54 -62l-193 -129l-38 49
z" />
    <glyph glyph-name="ecircumflex" unicode="&#xea;" 
d="M518 248h-356c4 -147 70 -196 152 -196c59 0 118 27 167 57l32 -67c-67 -30 -131 -53 -205 -53c-158 0 -221 136 -221 275c0 140 65 282 225 282c178 0 206 -199 206 -257v-41zM161 311h282c-3 88 -53 172 -137 172s-125 -64 -145 -172zM300 684l-139 -103l-40 43
l179 153l179 -153l-39 -43z" />
    <glyph glyph-name="edieresis" unicode="&#xeb;" 
d="M518 248h-356c4 -147 70 -196 152 -196c59 0 118 27 167 57l32 -67c-67 -30 -131 -53 -205 -53c-158 0 -221 136 -221 275c0 140 65 282 225 282c178 0 206 -199 206 -257v-41zM161 311h282c-3 88 -53 172 -137 172s-125 -64 -145 -172zM141 678c0 38 32 67 69 67
s69 -29 69 -67s-32 -67 -69 -67s-69 29 -69 67zM320 678c0 38 32 67 69 67s69 -29 69 -67s-32 -67 -69 -67s-69 29 -69 67z" />
    <glyph glyph-name="igrave" unicode="&#xec;" 
d="M276 0v472h-152v63h227v-535h-75zM217 775l177 -142l-38 -49l-193 129z" />
    <glyph glyph-name="iacute" unicode="&#xed;" 
d="M276 0v472h-152v63h227v-535h-75zM383 775l54 -62l-193 -129l-38 49z" />
    <glyph glyph-name="icircumflex" unicode="&#xee;" 
d="M276 0v472h-152v63h227v-535h-75zM260 684l-139 -103l-40 43l179 153l179 -153l-39 -43z" />
    <glyph glyph-name="idieresis" unicode="&#xef;" 
d="M276 0v472h-152v63h227v-535h-75zM141 678c0 38 32 67 69 67s69 -29 69 -67s-32 -67 -69 -67s-69 29 -69 67zM320 678c0 38 32 67 69 67s69 -29 69 -67s-32 -67 -69 -67s-69 29 -69 67z" />
    <glyph glyph-name="eth" unicode="&#xf0;" 
d="M300 52c117 0 138 123 138 215s-21 216 -138 216s-137 -124 -137 -216s20 -215 137 -215zM302 632l-136 -62l-44 34l132 63c-40 26 -85 42 -130 53l50 22c46 -6 96 -23 139 -48l107 48l46 -35l-103 -47c83 -69 150 -182 150 -352c0 -264 -110 -319 -213 -319
c-93 0 -212 62 -212 278c0 207 114 279 210 279c36 0 72 -16 110 -50l2 2c-27 61 -69 104 -108 134z" />
    <glyph glyph-name="ntilde" unicode="&#xf1;" 
d="M186 223v-223h-75v269c0 90 -4 181 -24 266h72l17 -98c38 63 107 109 182 109c85 0 129 -78 129 -169v-377h-75v355c0 51 0 128 -66 128c-71 0 -160 -72 -160 -260zM427 734l61 -25c-18 -51 -59 -95 -116 -95c-34 0 -59 14 -87 31c-20 13 -44 31 -69 31
c-33 0 -52 -42 -63 -68l-62 22c25 55 59 109 127 109c35 0 58 -15 87 -32c16 -9 46 -30 65 -30c33 0 46 32 57 57z" />
    <glyph glyph-name="ograve" unicode="&#xf2;" 
d="M300 -11c-93 0 -212 62 -212 278c0 207 110 279 212 279c189 0 213 -192 213 -279c0 -207 -110 -278 -213 -278zM300 52c117 0 138 123 138 215s-21 216 -138 216s-137 -124 -137 -216s20 -215 137 -215zM237 775l177 -142l-38 -49l-193 129z" />
    <glyph glyph-name="oacute" unicode="&#xf3;" 
d="M300 -11c-93 0 -212 62 -212 278c0 207 110 279 212 279c189 0 213 -192 213 -279c0 -207 -110 -278 -213 -278zM300 52c117 0 138 123 138 215s-21 216 -138 216s-137 -124 -137 -216s20 -215 137 -215zM383 775l54 -62l-193 -129l-38 49z" />
    <glyph glyph-name="ocircumflex" unicode="&#xf4;" 
d="M300 -11c-93 0 -212 62 -212 278c0 207 110 279 212 279c189 0 213 -192 213 -279c0 -207 -110 -278 -213 -278zM300 52c117 0 138 123 138 215s-21 216 -138 216s-137 -124 -137 -216s20 -215 137 -215zM300 684l-139 -103l-40 43l179 153l179 -153l-39 -43z" />
    <glyph glyph-name="otilde" unicode="&#xf5;" 
d="M300 -11c-93 0 -212 62 -212 278c0 207 110 279 212 279c189 0 213 -192 213 -279c0 -207 -110 -278 -213 -278zM300 52c117 0 138 123 138 215s-21 216 -138 216s-137 -124 -137 -216s20 -215 137 -215zM437 734l61 -25c-18 -51 -59 -95 -116 -95c-34 0 -59 14 -87 31
c-20 13 -44 31 -69 31c-33 0 -52 -42 -63 -68l-62 22c25 55 59 109 127 109c35 0 58 -15 87 -32c16 -9 46 -30 65 -30c33 0 46 32 57 57z" />
    <glyph glyph-name="odieresis" unicode="&#xf6;" 
d="M300 -11c-93 0 -212 62 -212 278c0 207 110 279 212 279c189 0 213 -192 213 -279c0 -207 -110 -278 -213 -278zM300 52c117 0 138 123 138 215s-21 216 -138 216s-137 -124 -137 -216s20 -215 137 -215zM141 678c0 38 32 67 69 67s69 -29 69 -67s-32 -67 -69 -67
s-69 29 -69 67zM320 678c0 38 32 67 69 67s69 -29 69 -67s-32 -67 -69 -67s-69 29 -69 67z" />
    <glyph glyph-name="divide" unicode="&#xf7;" 
d="M575 393v-66h-550v66h550zM355 210c0 -30 -25 -55 -55 -55s-55 25 -55 55s25 55 55 55s55 -25 55 -55zM355 510c0 -30 -25 -55 -55 -55s-55 25 -55 55s25 55 55 55s55 -25 55 -55z" />
    <glyph glyph-name="oslash" unicode="&#xf8;" 
d="M409 514l35 57l53 -37l-40 -64c46 -58 57 -131 57 -203c0 -207 -112 -278 -213 -278c-42 0 -80 12 -115 36l-35 -59l-53 36l42 68c-42 57 -52 129 -52 197c0 207 112 279 213 279c39 0 76 -11 108 -32zM182 140l194 318c-22 17 -48 25 -75 25c-120 0 -138 -129 -138 -222
c0 -42 5 -82 19 -121zM417 403l-197 -323c24 -20 49 -28 81 -28c120 0 138 128 138 221c0 45 -6 88 -22 130z" />
    <glyph glyph-name="ugrave" unicode="&#xf9;" 
d="M415 316v219h75v-259c0 -93 2 -185 23 -276h-71l-17 103c-35 -59 -107 -114 -176 -114c-95 0 -135 81 -135 174v372h75v-350c0 -50 0 -133 66 -133c74 0 160 83 160 264zM217 775l177 -142l-38 -49l-193 129z" />
    <glyph glyph-name="uacute" unicode="&#xfa;" 
d="M415 316v219h75v-259c0 -93 2 -185 23 -276h-71l-17 103c-35 -59 -107 -114 -176 -114c-95 0 -135 81 -135 174v372h75v-350c0 -50 0 -133 66 -133c74 0 160 83 160 264zM383 775l54 -62l-193 -129l-38 49z" />
    <glyph glyph-name="ucircumflex" unicode="&#xfb;" 
d="M415 316v219h75v-259c0 -93 2 -185 23 -276h-71l-17 103c-35 -59 -107 -114 -176 -114c-95 0 -135 81 -135 174v372h75v-350c0 -50 0 -133 66 -133c74 0 160 83 160 264zM300 684l-139 -103l-40 43l179 153l179 -153l-39 -43z" />
    <glyph glyph-name="udieresis" unicode="&#xfc;" 
d="M415 316v219h75v-259c0 -93 2 -185 23 -276h-71l-17 103c-35 -59 -107 -114 -176 -114c-95 0 -135 81 -135 174v372h75v-350c0 -50 0 -133 66 -133c74 0 160 83 160 264zM141 678c0 38 32 67 69 67s69 -29 69 -67s-32 -67 -69 -67s-69 29 -69 67zM320 678
c0 38 32 67 69 67s69 -29 69 -67s-32 -67 -69 -67s-69 29 -69 67z" />
    <glyph glyph-name="yacute" unicode="&#xfd;" 
d="M445 535h80l-198 -502c-30 -77 -78 -196 -176 -196c-69 0 -117 53 -136 116l63 33c12 -32 33 -86 73 -86c42 0 67 58 81 90l35 81l-172 464h81l130 -364zM383 775l54 -62l-193 -129l-38 49z" />
    <glyph glyph-name="thorn" unicode="&#xfe;" 
d="M189 742v-246c31 30 71 50 117 50c94 0 215 -72 215 -282c0 -203 -132 -275 -218 -275c-44 0 -76 11 -114 31v-225h-75v947h75zM189 390v-294c30 -24 65 -44 102 -44c88 0 155 76 155 215c0 175 -92 216 -141 216c-61 0 -93 -44 -116 -93z" />
    <glyph glyph-name="ydieresis" unicode="&#xff;" 
d="M445 535h80l-198 -502c-30 -77 -78 -196 -176 -196c-69 0 -117 53 -136 116l63 33c12 -32 33 -86 73 -86c42 0 67 58 81 90l35 81l-172 464h81l130 -364zM141 678c0 38 32 67 69 67s69 -29 69 -67s-32 -67 -69 -67s-69 29 -69 67zM320 678c0 38 32 67 69 67
s69 -29 69 -67s-32 -67 -69 -67s-69 29 -69 67z" />
    <glyph glyph-name="dcroat" unicode="&#x111;" 
d="M378 144v295c-29 24 -63 44 -101 44c-80 0 -154 -67 -154 -215c0 -174 91 -216 141 -216c58 0 94 43 114 92zM453 600v-409c0 -66 6 -132 27 -193l-71 -9l-16 60c-45 -40 -69 -60 -131 -60c-94 0 -214 72 -214 282c0 204 130 275 217 275c45 0 76 -11 113 -31v85h-124v58
h124v84h75v-84h115v-58h-115z" />
    <glyph glyph-name="Hbar" unicode="&#x126;" 
d="M175 525v-120h250v120h-250zM425 588v132h75v-132h78v-63h-78v-525h-75v342h-250v-342h-75v525h-80v63h80v132h75v-132h250z" />
    <glyph glyph-name="hbar" unicode="&#x127;" 
d="M193 742v-95h137v-59h-137v-130c38 51 95 88 161 88c64 0 138 -20 138 -239v-307h-75v313c0 49 0 170 -68 170c-56 0 -106 -50 -129 -97c-29 -60 -27 -120 -27 -187v-199h-75v588h-104v59h104v95h75z" />
    <glyph glyph-name="dotlessi" unicode="&#x131;" 
d="M276 0v472h-152v63h227v-535h-75z" />
    <glyph glyph-name="IJ" unicode="&#x132;" 
d="M195 720v-63h-56v-594h56v-63h-185v63h54v594h-54v63h185zM331 720h208v-487c0 -206 -87 -247 -167 -247c-106 0 -159 71 -159 204v90h75v-79c0 -49 -1 -153 86 -153c78 0 90 94 90 182v427h-133v63z" />
    <glyph glyph-name="ij" unicode="&#x133;" 
d="M18 535h194v-535h-75v472h-119v63zM170 734c35 0 63 -27 63 -63s-28 -63 -63 -63s-63 27 -63 63s28 63 63 63zM307 535h196v-495c0 -127 -62 -203 -176 -203c-51 0 -93 19 -128 55l46 58c21 -29 51 -50 88 -50c60 0 95 38 95 140v432h-121v63zM459 734
c35 0 63 -27 63 -63s-28 -63 -63 -63s-63 27 -63 63s28 63 63 63z" />
    <glyph glyph-name="kgreenlandic" unicode="&#x138;" 
d="M295 290l263 -290h-99l-210 246l-34 -34v-212h-75v546h75v-245c41 41 89 90 125 133c33 39 54 66 76 84c21 17 54 30 99 28v-62c-45 4 -73 -18 -118 -78c-32 -43 -67 -79 -102 -116z" />
    <glyph glyph-name="Ldot" unicode="&#x13f;" 
d="M230 720v-657h312v-63h-387v720h75zM414 362c0 38 32 67 69 67s69 -29 69 -67s-32 -67 -69 -67s-69 29 -69 67z" />
    <glyph glyph-name="ldot" unicode="&#x140;" 
d="M268 0v679h-152v63h227v-742h-75zM522 377c0 38 32 67 69 67s69 -29 69 -67s-32 -67 -69 -67s-69 29 -69 67z" />
    <glyph glyph-name="Lslash" unicode="&#x141;" 
d="M219 432l182 88v-81l-182 -74v-302h309v-63h-384v334l-113 -51v71l113 46v320h75v-288z" />
    <glyph glyph-name="lslash" unicode="&#x142;" 
d="M343 478l136 62v-74l-136 -62v-404h-75v372l-143 -66v73l143 67v233h-152v63h227v-264z" />
    <glyph glyph-name="napostrophe" unicode="&#x149;" 
d="M30 487v68c24 5 46 15 64 32c-37 3 -66 31 -66 69c0 46 34 78 79 78c50 0 83 -44 83 -91c0 -84 -87 -139 -160 -156zM266 223v-223h-75v269c0 90 -4 181 -24 266h72l17 -98c38 63 107 109 182 109c85 0 129 -78 129 -169v-377h-75v355c0 51 0 128 -66 128
c-71 0 -160 -72 -160 -260z" />
    <glyph glyph-name="Eng" unicode="&#x14a;" 
d="M186 300v-300h-75v362c0 121 -4 243 -24 358h72l17 -133c38 85 107 147 182 147c85 0 129 -105 129 -227v-455c0 -142 -94 -215 -199 -215c-42 0 -84 16 -121 40l37 55c27 -20 59 -32 93 -32c68 0 115 56 115 148v429c0 69 0 182 -66 182c-71 0 -160 -106 -160 -359z" />
    <glyph glyph-name="eng" unicode="&#x14b;" 
d="M186 223v-223h-75v269c0 90 -4 181 -24 266h72l17 -98c38 63 107 109 182 109c85 0 129 -78 129 -169v-325c0 -167 -122 -215 -199 -215c-47 0 -96 20 -135 50l43 51c28 -23 64 -38 101 -38c79 0 115 72 115 148v307c0 51 0 128 -66 128c-71 0 -160 -72 -160 -260z" />
    <glyph glyph-name="OE" unicode="&#x152;" 
d="M591 720v-63h-203v-253h138v-63h-138v-278h211v-63h-269c-12 -5 -25 -8 -39 -11c-13 -2 -26 -3 -40 -3c-212 0 -221 221 -221 379c0 109 -2 369 225 369c28 0 49 -5 75 -14h261zM313 63v593c-19 7 -40 15 -61 15c-75 0 -147 -53 -147 -304c0 -268 60 -318 147 -318
c21 0 42 6 61 14z" />
    <glyph glyph-name="oe" unicode="&#x153;" 
d="M554 249h-219v-111c0 -40 0 -86 54 -86c51 0 106 35 149 61l27 -62c-55 -32 -115 -62 -181 -62c-37 0 -60 10 -88 33c-21 -17 -43 -33 -71 -33c-77 0 -185 67 -185 278s104 279 181 279c30 0 57 -15 82 -29c30 20 52 29 88 29c49 0 163 -31 163 -249v-48zM260 80v388
c-11 8 -21 15 -36 15c-38 0 -109 -43 -109 -216c0 -167 68 -215 102 -215c21 0 34 14 43 28zM335 312h144c-1 60 -16 171 -95 171c-35 0 -49 -22 -49 -83v-88z" />
    <glyph glyph-name="Scaron" unicode="&#x160;" 
d="M502 644l-45 -54c-44 39 -94 81 -156 81c-64 0 -116 -44 -116 -110c0 -38 7 -72 104 -131l57 -35c132 -81 168 -119 168 -203c0 -129 -86 -206 -212 -206c-93 0 -162 45 -218 117l58 46c35 -56 91 -100 160 -100c75 0 137 56 137 133c0 58 -4 78 -131 154l-65 39
c-71 42 -133 91 -133 181c0 113 86 178 194 178c75 0 144 -40 198 -90zM300 859l140 103l39 -43l-179 -153l-179 153l39 43z" />
    <glyph glyph-name="scaron" unicode="&#x161;" 
d="M464 484l-33 -61c-42 30 -89 60 -143 60c-45 0 -87 -33 -87 -81c0 -52 62 -78 103 -93c84 -31 172 -66 172 -172c0 -88 -80 -148 -163 -148c-81 0 -161 40 -220 93l41 60c42 -45 111 -90 174 -90c50 0 93 28 93 82c0 70 -56 89 -111 110c-76 29 -164 65 -164 161
c0 78 72 141 165 141c67 0 120 -24 173 -62zM300 674l140 103l39 -43l-179 -153l-179 153l39 43z" />
    <glyph glyph-name="Tbar" unicode="&#x166;" 
d="M541 657h-205v-268h131v-59h-131v-330h-75v330h-128v59h128v268h-201v63h481v-63z" />
    <glyph glyph-name="tbar" unicode="&#x167;" 
d="M271 371h191v-63h-191v-141c0 -52 1 -115 69 -115c57 0 92 47 113 94l72 -18c-36 -77 -97 -139 -187 -139c-87 0 -142 42 -142 202v117h-115v63h115v101h-115v63h115v164h75v-164h191v-63h-191v-101z" />
    <glyph glyph-name="Ydieresis" unicode="&#x178;" 
d="M282 394l138 326h83l-184 -416v-304h-75v304l-184 416h83zM121 863c0 38 32 67 69 67s69 -29 69 -67s-32 -67 -69 -67s-69 29 -69 67zM300 863c0 38 32 67 69 67s69 -29 69 -67s-32 -67 -69 -67s-69 29 -69 67z" />
    <glyph glyph-name="Zcaron" unicode="&#x17d;" 
d="M114 720h375v-53l-296 -604h320v-63h-410v54l300 603h-289v63zM300 859l140 103l39 -43l-179 -153l-179 153l39 43z" />
    <glyph glyph-name="zcaron" unicode="&#x17e;" 
d="M496 535v-56l-307 -416h319v-63h-416v55l309 417h-265v63h360zM300 674l140 103l39 -43l-179 -153l-179 153l39 43z" />
    <glyph glyph-name="florin" unicode="&#x192;" 
d="M360 495h110v-63h-118l-47 -378c-16 -129 -57 -181 -161 -181h-54v63h42c70 0 87 14 101 128l46 368h-112v63h119l8 61c18 138 64 186 164 186h51v-63h-56c-56 0 -73 -27 -89 -152z" />
    <glyph glyph-name="circumflex" unicode="&#x2c6;" 
d="M300 684l-139 -103l-40 43l179 153l179 -153l-39 -43z" />
    <glyph glyph-name="caron" unicode="&#x2c7;" 
d="M300 674l140 103l39 -43l-179 -153l-179 153l39 43z" />
    <glyph glyph-name="uni02C9" unicode="&#x2c9;" 
d="M455 610h-311v63h311v-63z" />
    <glyph glyph-name="breve" unicode="&#x2d8;" 
d="M117 748h69c5 -60 52 -78 108 -78c60 0 113 10 120 78h69c-5 -102 -80 -141 -177 -141c-102 0 -182 29 -189 141z" />
    <glyph glyph-name="dotaccent" unicode="&#x2d9;" 
d="M231 677c0 38 32 67 69 67s69 -29 69 -67s-32 -67 -69 -67s-69 29 -69 67z" />
    <glyph glyph-name="ring" unicode="&#x2da;" 
d="M202 689c0 52 43 95 94 95s94 -43 94 -95s-43 -95 -94 -95s-94 43 -94 95zM265 689c0 -17 14 -32 31 -32s31 15 31 32s-14 32 -31 32s-31 -15 -31 -32z" />
    <glyph glyph-name="ogonek" unicode="&#x2db;" 
d="M366 -104v-64c-36 -14 -64 -22 -103 -22c-64 0 -129 27 -129 100c0 56 43 94 91 115h106c-32 -27 -122 -63 -122 -114c0 -36 23 -42 56 -42c36 0 69 14 101 27z" />
    <glyph glyph-name="tilde" unicode="&#x2dc;" 
d="M437 734l61 -25c-18 -51 -59 -95 -116 -95c-34 0 -59 14 -87 31c-20 13 -44 31 -69 31c-33 0 -52 -42 -63 -68l-62 22c25 55 59 109 127 109c35 0 58 -15 87 -32c16 -9 46 -30 65 -30c33 0 46 32 57 57z" />
    <glyph glyph-name="hungarumlaut" unicode="&#x2dd;" 
d="M456 768l55 -62l-194 -129l-37 49zM267 775l55 -62l-194 -129l-37 49z" />
    <glyph glyph-name="uni0393" unicode="&#x393;" 
d="M149 720h359v-63h-284v-657h-75v720z" />
    <glyph glyph-name="uni0398" unicode="&#x398;" 
d="M300 -14c-128 0 -276 130 -276 374c0 249 151 374 276 374c129 0 276 -130 276 -374c0 -233 -140 -374 -276 -374zM300 49c80 0 201 93 201 311c0 229 -129 311 -201 311c-89 0 -201 -98 -201 -311c0 -231 127 -311 201 -311zM171 398h257v-63h-257v63z" />
    <glyph glyph-name="uni03A6" unicode="&#x3a6;" 
d="M261 734h75v-67c160 -1 245 -162 245 -306c0 -143 -85 -308 -245 -308v-67h-75v66c-158 3 -242 160 -242 305c0 144 83 310 242 310v67zM261 111v497c-120 3 -167 -150 -167 -251c0 -100 50 -248 167 -246zM336 608v-496c120 -1 170 145 170 247s-47 250 -170 249z" />
    <glyph glyph-name="uni03A9" unicode="&#x3a9;" 
d="M328 0v144c123 7 160 134 160 238c0 113 -40 289 -181 289c-139 0 -195 -167 -195 -282c0 -113 46 -241 178 -245v-144h-250v63h175v41c-124 30 -178 173 -178 292c0 162 90 338 272 338c109 0 254 -86 254 -338c0 -110 -44 -260 -160 -291v-42h157v-63h-232z" />
    <glyph glyph-name="uni03B1" unicode="&#x3b1;" 
d="M246 52c58 0 124 92 124 229c0 71 -34 202 -123 202c-51 0 -118 -73 -118 -230c0 -145 64 -201 117 -201zM421 385l55 168l68 -18l-95 -260l77 -275h-72l-38 156h-2c-22 -89 -69 -167 -171 -167c-70 0 -189 56 -189 270c0 114 54 287 193 287c97 0 152 -75 174 -161z" />
    <glyph glyph-name="uni03B4" unicode="&#x3b4;" 
d="M440 241c0 84 -46 183 -142 183c-97 0 -138 -107 -138 -189c0 -78 47 -186 138 -186c96 0 142 110 142 192zM210 657l217 -217c57 -57 88 -117 88 -198c0 -125 -81 -256 -217 -256c-132 0 -213 132 -213 252c0 175 100 235 200 249l-141 146v87h316v-63h-250z" />
    <glyph glyph-name="uni03B5" unicode="&#x3b5;" 
d="M348 315v-63c-113 0 -190 -26 -190 -113c0 -29 36 -90 150 -90c78 0 118 29 152 68l66 -29c-50 -62 -114 -102 -215 -102c-130 0 -228 62 -228 161c0 66 48 114 128 140c-56 26 -94 65 -94 116c0 78 85 143 191 143c92 0 166 -41 208 -101l-63 -27c-31 42 -75 65 -137 65
c-111 0 -124 -52 -124 -76c0 -64 75 -95 156 -92z" />
    <glyph glyph-name="uni03BC" unicode="&#x3bc;" 
d="M410 0v45c-25 -35 -65 -56 -108 -56c-44 0 -85 18 -111 52v-271h-75v765h75v-311c0 -142 62 -172 106 -172c41 0 113 26 113 179v304h75v-535h-75z" />
    <glyph glyph-name="pi" unicode="&#x3c0;" 
d="M48 535h504v-63h-100v-472h-75v472h-154v-472h-75v472h-100v63z" />
    <glyph glyph-name="uni03C3" unicode="&#x3c3;" 
d="M544 536v-61l-162 9c68 -53 99 -143 99 -227c0 -137 -79 -268 -211 -268c-138 0 -215 150 -215 275c0 124 68 270 227 271zM269 52c97 0 137 132 137 216c0 80 -44 205 -138 205c-97 0 -138 -126 -138 -207c0 -165 97 -214 139 -214z" />
    <glyph glyph-name="uni03C4" unicode="&#x3c4;" 
d="M508 535v-63h-166v-472h-75v472h-71c-35 0 -70 -1 -103 -18v64c23 12 47 17 77 17h338z" />
    <glyph glyph-name="uni03D5" unicode="&#x3d5;" 
d="M339 479v-423c89 20 106 128 106 211s-17 192 -106 212zM339 676v-133c87 -13 181 -85 181 -276c0 -185 -89 -262 -181 -275v-118h-63v118c-86 12 -181 82 -181 275c0 187 89 263 181 276v133h63zM276 56v423c-90 -19 -106 -129 -106 -212s16 -192 106 -211z" />
    <glyph glyph-name="endash" unicode="&#x2013;" 
d="M476 327h-352v63h352v-63z" />
    <glyph glyph-name="uni2014" unicode="&#x2014;" 
d="M0 216v72h600v-72h-600z" />
    <glyph glyph-name="underscoredbl" unicode="&#x2017;" 
d="M600 -108h-600v36h600v-36zM600 -216h-600v36h600v-36z" />
    <glyph glyph-name="quoteleft" unicode="&#x2018;" 
d="M389 734v-68c-24 -5 -46 -15 -64 -32c37 -3 66 -31 66 -69c0 -46 -34 -78 -79 -78c-50 0 -83 44 -83 91c0 84 87 139 160 156z" />
    <glyph glyph-name="quoteright" unicode="&#x2019;" 
d="M232 487v68c24 5 46 15 64 32c-37 3 -66 31 -66 69c0 46 34 78 79 78c50 0 83 -44 83 -91c0 -84 -87 -139 -160 -156z" />
    <glyph glyph-name="quotesinglbase" unicode="&#x201a;" 
d="M221 -112v68c24 5 46 15 64 32c-37 3 -66 31 -66 69c0 46 34 78 79 78c50 0 83 -44 83 -91c0 -84 -87 -139 -160 -156z" />
    <glyph glyph-name="uni201B" unicode="&#x201b;" 
d="M382 554v-67c-73 17 -160 71 -160 156c0 47 33 91 83 91c45 0 79 -32 79 -78c0 -38 -29 -67 -66 -69c18 -17 40 -27 64 -33z" />
    <glyph glyph-name="quotedblleft" unicode="&#x201c;" 
d="M280 734v-68c-24 -5 -46 -15 -64 -32c37 -3 66 -31 66 -69c0 -46 -34 -78 -79 -78c-50 0 -83 44 -83 91c0 84 87 139 160 156zM498 734v-68c-24 -5 -46 -15 -64 -32c37 -3 66 -31 66 -69c0 -46 -34 -78 -79 -78c-50 0 -83 44 -83 91c0 84 87 139 160 156z" />
    <glyph glyph-name="quotedblright" unicode="&#x201d;" 
d="M122 487v68c24 5 46 15 64 32c-37 3 -66 31 -66 69c0 46 34 78 79 78c50 0 83 -44 83 -91c0 -84 -87 -139 -160 -156zM340 487v68c24 5 46 15 64 32c-37 3 -66 31 -66 69c0 46 34 78 79 78c50 0 83 -44 83 -91c0 -84 -87 -139 -160 -156z" />
    <glyph glyph-name="quotedblbase" unicode="&#x201e;" 
d="M122 -112v68c24 5 46 15 64 32c-37 3 -66 31 -66 69c0 46 34 78 79 78c50 0 83 -44 83 -91c0 -84 -87 -139 -160 -156zM340 -112v68c24 5 46 15 64 32c-37 3 -66 31 -66 69c0 46 34 78 79 78c50 0 83 -44 83 -91c0 -84 -87 -139 -160 -156z" />
    <glyph glyph-name="dagger" unicode="&#x2020;" 
d="M255 720h90l-7 -198l128 7v-79l-128 7l6 -81l-11 -376h-66l-11 376l6 81l-128 -7v79l128 -7z" />
    <glyph glyph-name="daggerdbl" unicode="&#x2021;" 
d="M263 474l-128 -7v79l128 -7l-7 181h89l-7 -181l128 7v-79l-128 7v-228l128 7v-79l-128 7l7 -181h-89l7 181l-128 -7v79l128 -7v228z" />
    <glyph glyph-name="bullet" unicode="&#x2022;" 
d="M200 384c0 55 46 97 100 97s100 -42 100 -97s-46 -97 -100 -97s-100 42 -100 97z" />
    <glyph glyph-name="ellipsis" unicode="&#x2026;" 
d="M101 -14c-40 0 -73 31 -73 70c0 40 34 70 73 70s72 -30 72 -70c0 -39 -33 -70 -72 -70zM301 -14c-40 0 -73 31 -73 70c0 40 34 70 73 70s72 -30 72 -70c0 -39 -33 -70 -72 -70zM501 -14c-40 0 -73 31 -73 70c0 40 34 70 73 70s72 -30 72 -70c0 -39 -33 -70 -72 -70z" />
    <glyph glyph-name="perthousand" unicode="&#x2030;" 
d="M535 183c0 15 -2 51 -23 51c-45 0 -57 -109 -57 -141c0 -17 0 -52 24 -52c44 0 56 112 56 142zM312 734h54l-302 -748h-54zM145 628c0 15 -2 51 -23 51c-45 0 -57 -109 -57 -141c0 -17 0 -52 24 -52c44 0 56 112 56 142zM392 101c0 73 31 188 121 188
c61 0 85 -52 85 -107c0 -74 -29 -196 -121 -196c-67 0 -85 59 -85 115zM2 546c0 73 31 188 121 188c61 0 85 -52 85 -107c0 -74 -29 -196 -121 -196c-67 0 -85 59 -85 115zM166 101c0 73 31 188 121 188c61 0 85 -52 85 -107c0 -74 -29 -196 -121 -196c-67 0 -85 59 -85 115
zM309 183c0 15 -2 51 -23 51c-45 0 -57 -109 -57 -141c0 -17 0 -52 24 -52c44 0 56 112 56 142z" />
    <glyph glyph-name="guilsinglleft" unicode="&#x2039;" 
d="M392 615l47 -48l-224 -211l224 -211l-47 -50l-273 261z" />
    <glyph glyph-name="guilsinglright" unicode="&#x203a;" 
d="M208 615l274 -259l-274 -261l-47 50l224 211l-224 211z" />
    <glyph glyph-name="exclamdbl" unicode="&#x203c;" 
d="M219 720l-14 -501h-67l-17 501h98zM88 64c0 44 38 77 81 77s80 -33 80 -77s-37 -78 -80 -78c-44 0 -81 34 -81 78zM479 720l-14 -501h-67l-17 501h98zM347 64c0 44 38 77 81 77s80 -33 80 -77s-37 -78 -80 -78c-44 0 -81 34 -81 78z" />
    <glyph glyph-name="uni203E" unicode="&#x203e;" 
d="M532 -104h-464v55h464v-55z" />
    <glyph glyph-name="fraction" unicode="&#x2044;" 
d="M140 720h58l-330 -720h-56z" />
    <glyph glyph-name="nsuperior" unicode="&#x207f;" 
d="M235 540v-134h-50v161c0 54 -3 109 -16 160h48l11 -59c25 38 70 66 119 66c55 0 85 -47 85 -102v-226h-50v213c0 31 0 73 -43 73c-46 0 -104 -39 -104 -152z" />
    <glyph glyph-name="franc" unicode="&#x20a3;" 
d="M329 720v-63h-251v-250h188v-63h-188v-344h-60v720h311zM341 481l12 -91c30 56 63 101 121 101c73 0 91 -88 91 -161h-55c-1 36 3 105 -39 105c-40 0 -113 -76 -113 -234v-201h-55v276c0 80 -5 145 -15 205h53z" />
    <glyph glyph-name="uni20A7" unicode="&#x20a7;" 
d="M10 0v720h139c105 0 166 -78 166 -220c0 -152 -80 -218 -194 -217h-51v-283h-60zM70 346h67c70 0 118 52 118 153c0 113 -42 158 -114 158h-71v-311zM542 348v-42h-125v-200c0 -34 0 -75 45 -75c37 0 60 31 74 61l47 -11c-23 -51 -63 -92 -122 -92c-57 0 -94 28 -94 133
v184h-75v42h75v107h50v-107h125z" />
    <glyph glyph-name="Euro" unicode="&#x20ac;" 
d="M531 564h-75c-1 60 -44 107 -105 107c-112 0 -147 -111 -157 -213h211l-13 -71h-202c-1 -13 -1 -23 -1 -33c0 -3 0 -7 1 -12h194l-13 -71h-178c8 -101 39 -222 151 -222c75 0 120 56 121 127h75c-8 -117 -79 -190 -199 -190c-163 0 -212 148 -223 285h-60l13 71h43v14
c0 10 0 21 1 31h-57l13 71h49c14 136 68 276 230 276c100 0 175 -70 181 -170z" />
    <glyph glyph-name="afii61289" unicode="&#x2113;" 
d="M493 149l35 -28c-46 -85 -113 -130 -197 -130c-119 0 -169 92 -173 194v14l-63 -51l-23 40c31 25 60 47 85 72v288c0 189 84 246 159 246c88 0 129 -76 129 -166c0 -132 -90 -258 -225 -385l1 -31c4 -120 60 -168 123 -168c70 0 123 57 149 105zM220 555v-245
c98 103 176 207 176 315c0 69 -22 118 -81 118c-42 0 -95 -47 -95 -188z" />
    <glyph glyph-name="trademark" unicode="&#x2122;" 
d="M594 742v-278h-60v224h-2l-79 -224h-36l-81 224h-1v-224h-60v278h97l63 -164l62 164h97zM241 742v-54h-85v-224h-66v224h-85v54h236z" />
    <glyph glyph-name="Omega" unicode="&#x2126;" 
d="M328 0v144c123 7 160 134 160 238c0 113 -40 289 -181 289c-139 0 -195 -167 -195 -282c0 -113 46 -241 178 -245v-144h-250v63h175v41c-124 30 -178 173 -178 292c0 162 90 338 272 338c109 0 254 -86 254 -338c0 -110 -44 -260 -160 -291v-42h157v-63h-232z" />
    <glyph glyph-name="estimated" unicode="&#x212e;" 
d="M598 252h-484c-2 0 -4 -1 -4 -4v-146c0 -6 2 -12 6 -17c47 -48 112 -79 184 -79c77 0 145 34 192 89h43c-53 -63 -140 -104 -236 -104c-165 0 -299 120 -299 268c0 149 134 269 299 269s299 -120 299 -269v-7zM488 271v147c0 7 -2 13 -7 18c-47 45 -111 76 -181 76
c-72 0 -136 -31 -183 -79c-5 -5 -7 -11 -7 -18v-144c0 -2 2 -5 4 -5h371c2 0 3 3 3 5z" />
    <glyph glyph-name="oneeighth" unicode="&#x215b;" 
d="M375 105c0 -45 32 -70 75 -70c44 0 75 24 75 70c0 45 -31 70 -75 70c-43 0 -75 -25 -75 -70zM512 280c0 39 -23 62 -62 62c-43 0 -62 -27 -62 -68c0 -36 29 -57 62 -57c39 0 62 24 62 63zM523 199c36 -24 52 -50 52 -94c0 -74 -55 -112 -125 -112s-125 38 -125 112
c0 45 16 69 52 94c-26 23 -39 44 -39 81c0 66 48 104 112 104s112 -38 112 -104c0 -36 -13 -59 -39 -81zM176 742v-354h68v-42h-188v42h70v293l-73 -22v45zM446 720h58l-330 -720h-56z" />
    <glyph glyph-name="threeeighths" unicode="&#x215c;" 
d="M375 105c0 -45 32 -70 75 -70c44 0 75 24 75 70c0 45 -31 70 -75 70c-43 0 -75 -25 -75 -70zM512 280c0 39 -23 62 -62 62c-43 0 -62 -27 -62 -68c0 -36 29 -57 62 -57c39 0 62 24 62 63zM523 199c36 -24 52 -50 52 -94c0 -74 -55 -112 -125 -112s-125 38 -125 112
c0 45 16 69 52 94c-26 23 -39 44 -39 81c0 66 48 104 112 104s112 -38 112 -104c0 -36 -13 -59 -39 -81zM134 530l-17 -1v44c40 -3 82 19 82 64c0 33 -28 55 -59 55c-32 0 -57 -28 -69 -55l-43 24c22 42 63 73 112 73c60 0 109 -39 109 -101c0 -33 -18 -61 -45 -78
c40 -18 62 -53 62 -97c0 -69 -52 -115 -120 -115c-61 0 -93 27 -124 76l45 26c17 -37 35 -60 79 -60c41 0 70 27 70 68c0 50 -33 80 -82 77zM434 720h58l-330 -720h-56z" />
    <glyph glyph-name="fiveeighths" unicode="&#x215d;" 
d="M375 105c0 -45 32 -70 75 -70c44 0 75 24 75 70c0 45 -31 70 -75 70c-43 0 -75 -25 -75 -70zM512 280c0 39 -23 62 -62 62c-43 0 -62 -27 -62 -68c0 -36 29 -57 62 -57c39 0 62 24 62 63zM523 199c36 -24 52 -50 52 -94c0 -74 -55 -112 -125 -112s-125 38 -125 112
c0 45 16 69 52 94c-26 23 -39 44 -39 81c0 66 48 104 112 104s112 -38 112 -104c0 -36 -13 -59 -39 -81zM239 720v-42h-133l-9 -112c16 11 33 17 52 17c70 0 113 -51 113 -118c0 -70 -41 -129 -116 -129c-47 0 -83 29 -107 68l39 28c13 -28 39 -54 71 -54c42 0 63 44 63 81
c0 38 -17 82 -62 82c-24 0 -46 -22 -57 -43l-49 10l16 212h179zM435 720h58l-330 -720h-56z" />
    <glyph glyph-name="seveneighths" unicode="&#x215e;" 
d="M523 199c36 -24 52 -50 52 -94c0 -74 -55 -112 -125 -112s-125 38 -125 112c0 45 16 69 52 94c-26 23 -39 44 -39 81c0 66 48 104 112 104s112 -38 112 -104c0 -36 -13 -59 -39 -81zM375 105c0 -45 32 -70 75 -70c44 0 75 24 75 70c0 45 -31 70 -75 70
c-43 0 -75 -25 -75 -70zM512 280c0 39 -23 62 -62 62c-43 0 -62 -27 -62 -68c0 -36 29 -57 62 -57c39 0 62 24 62 63zM58 720h224l-150 -377h-54l137 335h-157v42zM406 720h58l-330 -720h-56z" />
    <glyph glyph-name="uni2190" unicode="&#x2190;" 
d="M136 382h460v-44h-460c15 -23 49 -98 49 -123c0 -8 -5 -16 -14 -16s-17 14 -21 20c-31 46 -77 95 -125 123c-6 3 -21 10 -21 18s15 15 21 18c48 28 94 77 125 123c4 6 12 20 21 20s14 -8 14 -16c0 -25 -34 -100 -49 -123z" />
    <glyph glyph-name="uni2191" unicode="&#x2191;" 
d="M322 524v-460h-44v460c-23 -15 -98 -49 -123 -49c-8 0 -16 5 -16 14s14 17 20 21c46 31 95 77 123 125c3 6 10 21 18 21s15 -15 18 -21c28 -48 77 -94 123 -125c6 -4 20 -12 20 -21s-8 -14 -16 -14c-25 0 -100 34 -123 49z" />
    <glyph glyph-name="uni2192" unicode="&#x2192;" 
d="M4 382h460c-15 23 -49 98 -49 123c0 8 5 16 14 16s17 -14 21 -20c31 -46 77 -95 125 -123c6 -3 21 -10 21 -18s-15 -15 -21 -18c-48 -28 -94 -77 -125 -123c-4 -6 -12 -20 -21 -20s-14 8 -14 16c0 25 34 100 49 123h-460v44z" />
    <glyph glyph-name="uni2193" unicode="&#x2193;" 
d="M322 656v-460c23 15 98 49 123 49c8 0 16 -5 16 -14s-14 -17 -20 -21c-46 -31 -95 -77 -123 -125c-3 -6 -10 -21 -18 -21s-15 15 -18 21c-28 48 -77 94 -123 125c-6 4 -20 12 -20 21s8 14 16 14c25 0 100 -34 123 -49v460h44z" />
    <glyph glyph-name="uni2194" unicode="&#x2194;" 
d="M464 338h-328c15 -23 49 -98 49 -123c0 -8 -5 -16 -14 -16s-17 14 -21 20c-31 46 -77 95 -125 123c-6 3 -21 10 -21 18s15 15 21 18c48 28 94 77 125 123c4 6 12 20 21 20s14 -8 14 -16c0 -25 -34 -100 -49 -123h328c-15 23 -49 98 -49 123c0 8 5 16 14 16s17 -14 21 -20
c31 -46 77 -95 125 -123c6 -3 21 -10 21 -18s-15 -15 -21 -18c-48 -28 -94 -77 -125 -123c-4 -6 -12 -20 -21 -20s-14 8 -14 16c0 25 34 100 49 123z" />
    <glyph glyph-name="uni2195" unicode="&#x2195;" 
d="M278 196v328c-23 -15 -98 -49 -123 -49c-8 0 -16 5 -16 14s14 17 20 21c46 31 95 77 123 125c3 6 10 21 18 21s15 -15 18 -21c28 -48 77 -94 123 -125c6 -4 20 -12 20 -21s-8 -14 -16 -14c-25 0 -100 34 -123 49v-328c23 15 98 49 123 49c8 0 16 -5 16 -14
s-14 -17 -20 -21c-46 -31 -95 -77 -123 -125c-3 -6 -10 -21 -18 -21s-15 15 -18 21c-28 48 -77 94 -123 125c-6 4 -20 12 -20 21s8 14 16 14c25 0 100 -34 123 -49z" />
    <glyph glyph-name="uni21A8" unicode="&#x21a8;" 
d="M278 261v328c-23 -15 -98 -49 -123 -49c-8 0 -16 5 -16 14s14 17 20 21c46 31 95 77 123 125c3 6 10 21 18 21s15 -15 18 -21c28 -48 77 -94 123 -125c6 -4 20 -12 20 -21s-8 -14 -16 -14c-25 0 -100 34 -123 49v-328c23 15 98 49 123 49c8 0 16 -5 16 -14
s-14 -17 -20 -21c-46 -31 -95 -77 -123 -125c-3 -6 -10 -21 -18 -21s-15 15 -18 21c-28 48 -77 94 -123 125c-6 4 -20 12 -20 21s8 14 16 14c25 0 100 -34 123 -49zM461 44v-44h-322v44h322z" />
    <glyph glyph-name="partialdiff" unicode="&#x2202;" 
d="M124 700l-27 47c35 28 91 58 176 58c136 0 267 -127 267 -390c0 -232 -92 -425 -275 -425c-139 0 -205 122 -205 238c0 160 108 261 227 261c103 0 167 -75 185 -107c2 13 2 35 2 49c0 195 -96 319 -206 319c-68 0 -115 -26 -144 -50zM270 45c108 0 177 127 194 268
c-17 48 -78 122 -166 122c-92 0 -171 -91 -171 -205c0 -106 56 -185 143 -185z" />
    <glyph glyph-name="Delta" unicode="&#x2206;" 
d="M6 1v49l257 693h77l254 -692v-50h-588zM74 56h447l-151 416c-20 55 -55 148 -69 195h-5c-10 -37 -42 -123 -62 -177z" />
    <glyph glyph-name="product" unicode="&#x220f;" 
d="M605 662h-101v-760h-65v760h-278v-760h-66v760h-100v60h610v-60z" />
    <glyph glyph-name="summation" unicode="&#x2211;" 
d="M191 657l200 -277l-207 -317h302v-63h-371v72l198 309l-198 269v70h367v-63h-291z" />
    <glyph glyph-name="minus" unicode="&#x2212;" 
d="M575 393v-66h-550v66h550z" />
    <glyph glyph-name="uni2215" unicode="&#x2215;" 
d="M140 720h58l-330 -720h-56z" />
    <glyph glyph-name="uni2219" unicode="&#x2219;" 
d="M220 360c0 44 37 77 80 77s80 -33 80 -77s-37 -78 -80 -78s-80 34 -80 78z" />
    <glyph glyph-name="radical" unicode="&#x221a;" 
d="M2 443h157l68 -249l178 601h193v-66h-143l-230 -776l-116 424h-107v66z" />
    <glyph glyph-name="infinity" unicode="&#x221e;" 
d="M300 302c-35 -51 -88 -99 -153 -99c-89 0 -134 75 -134 157c0 79 48 157 134 157c68 0 114 -48 153 -97c39 53 84 97 154 97c85 0 133 -74 133 -153s-41 -161 -130 -161c-72 0 -112 51 -157 99zM83 360c0 -40 15 -91 63 -91c51 0 92 52 115 91c-23 39 -64 91 -115 91
c-48 0 -63 -51 -63 -91zM517 360c0 40 -15 91 -63 91c-51 0 -92 -52 -115 -91c23 -39 64 -91 115 -91c48 0 63 51 63 91z" />
    <glyph glyph-name="uni2229" unicode="&#x2229;" 
d="M590 0h-70v432c0 137 -109 236 -220 236s-220 -99 -220 -236v-432h-70v433c0 169 125 301 290 301s290 -132 290 -301v-433z" />
    <glyph glyph-name="integral" unicode="&#x222b;" 
d="M472 864l-12 -46c-9 6 -26 12 -40 12c-17 0 -40 -7 -54 -24c-29 -32 -40 -88 -40 -187c0 -160 16 -359 16 -524c0 -114 -24 -174 -47 -208c-23 -33 -60 -49 -98 -49c-27 0 -56 10 -69 18l13 48c9 -5 28 -13 50 -13c18 0 39 8 50 23c23 28 40 74 40 182
c0 166 -16 369 -16 529c0 111 16 175 56 216c27 27 60 38 94 38c21 0 46 -8 57 -15z" />
    <glyph glyph-name="approxequal" unicode="&#x2248;" 
d="M173 496c37 0 84 -18 127 -37s83 -37 107 -37c51 0 93 57 112 98l52 -38c-31 -61 -89 -126 -163 -126c-40 0 -106 30 -144 45c-26 11 -63 29 -91 29c-59 0 -86 -43 -113 -86l-52 39c38 65 81 113 165 113zM194 372c37 0 84 -18 127 -37s83 -37 107 -37c51 0 93 37 112 78
l52 -38c-31 -61 -89 -106 -163 -106c-40 0 -106 30 -144 45c-26 11 -63 29 -91 29c-59 0 -86 -63 -113 -106l-52 39c38 65 81 133 165 133z" />
    <glyph glyph-name="notequal" unicode="&#x2260;" 
d="M279 256l-68 -131l-54 25l55 106h-170v64h204l39 79h-243v65h276c20 43 45 83 65 129c18 -9 37 -17 54 -28l-53 -101h174v-65h-207l-40 -79h247v-64h-279z" />
    <glyph glyph-name="uni2261" unicode="&#x2261;" 
d="M575 511v-66h-550v66h550zM575 393v-66h-550v66h550zM575 275v-66h-550v66h550z" />
    <glyph glyph-name="lessequal" unicode="&#x2264;" 
d="M476 720l43 -54l-325 -239l325 -239l-43 -54l-396 293zM88 0v66h424v-66h-424z" />
    <glyph glyph-name="greaterequal" unicode="&#x2265;" 
d="M80 666l43 54l396 -293l-396 -293l-43 54l325 239zM88 0v66h424v-66h-424z" />
    <glyph glyph-name="uni22C5" unicode="&#x22c5;" 
d="M250 360c0 20 16 36 36 36s36 -16 36 -36s-16 -36 -36 -36s-36 16 -36 36z" />
    <glyph glyph-name="uni2302" unicode="&#x2302;" 
d="M590 0h-580v406l290 169l290 -169v-406zM40 30h520v361l-260 152l-260 -152v-361z" />
    <glyph glyph-name="uni2304" unicode="&#x2304;" 
d="M103 680h74l123 -242l123 242h74l-164 -323h-66z" />
    <glyph glyph-name="uni2310" unicode="&#x2310;" 
d="M74 0h-44v276h540v-44h-496v-232z" />
    <glyph glyph-name="uni2319" unicode="&#x2319;" 
d="M30 276h44v-232h496v-44h-540v276z" />
    <glyph glyph-name="uni2320" unicode="&#x2320;" 
d="M266 -288v269c0 138 -6 502 196 502c75 0 138 -73 138 -147c0 -33 -14 -69 -53 -69c-48 0 -59 59 -64 95c-3 22 -7 58 -37 58c-46 0 -74 -74 -84 -109c-27 -100 -26 -228 -26 -332v-267h-70z" />
    <glyph glyph-name="uni2321" unicode="&#x2321;" 
d="M336 792v-269c0 -138 6 -502 -196 -502c-75 0 -138 73 -138 147c0 33 14 69 53 69c48 0 59 -59 64 -95c3 -22 7 -58 37 -58c46 0 74 74 84 109c27 100 26 228 26 332v267h70z" />
    <glyph glyph-name="uni2500" unicode="&#x2500;" 
d="M-20 216v72h640v-72h-640z" />
    <glyph glyph-name="uni2502" unicode="&#x2502;" 
d="M264 -288v1080h72v-1080h-72z" />
    <glyph glyph-name="uni250C" unicode="&#x250c;" 
d="M264 -288v576h356v-72h-284v-504h-72z" />
    <glyph glyph-name="uni2510" unicode="&#x2510;" 
d="M336 288v-576h-72v504h-284v72h356z" />
    <glyph glyph-name="uni2514" unicode="&#x2514;" 
d="M264 216v576h72v-504h284v-72h-356z" />
    <glyph glyph-name="uni2518" unicode="&#x2518;" 
d="M336 792v-576h-356v72h284v504h72z" />
    <glyph glyph-name="uni251C" unicode="&#x251c;" 
d="M264 -288v1080h72v-504h284v-72h-284v-504h-72z" />
    <glyph glyph-name="uni2524" unicode="&#x2524;" 
d="M-20 216v72h284v504h72v-1080h-72v504h-284z" />
    <glyph glyph-name="uni252C" unicode="&#x252c;" 
d="M-20 216v72h640v-72h-284v-504h-72v504h-284z" />
    <glyph glyph-name="uni2534" unicode="&#x2534;" 
d="M-20 216v72h284v504h72v-504h284v-72h-640z" />
    <glyph glyph-name="uni253C" unicode="&#x253c;" 
d="M-20 216v72h284v504h72v-504h284v-72h-284v-504h-72v504h-284z" />
    <glyph glyph-name="uni2550" unicode="&#x2550;" 
d="M-20 144v72h640v-72h-640zM-20 288v72h640v-72h-640z" />
    <glyph glyph-name="uni2551" unicode="&#x2551;" 
d="M192 -288v1080h72v-1080h-72zM336 -288v1080h72v-1080h-72z" />
    <glyph glyph-name="uni2552" unicode="&#x2552;" 
d="M264 -288v648h356v-72h-284v-72h284v-72h-284v-432h-72z" />
    <glyph glyph-name="uni2553" unicode="&#x2553;" 
d="M620 288v-72h-212v-504h-72v504h-72v-504h-72v576h428z" />
    <glyph glyph-name="uni2554" unicode="&#x2554;" 
d="M192 -288v648h428v-72h-356v-576h-72zM336 -288v504h284v-72h-212v-432h-72z" />
    <glyph glyph-name="uni2555" unicode="&#x2555;" 
d="M336 360v-648h-72v432h-284v72h284v72h-284v72h356z" />
    <glyph glyph-name="uni2556" unicode="&#x2556;" 
d="M-20 216v72h428v-576h-72v504h-72v-504h-72v504h-212z" />
    <glyph glyph-name="uni2557" unicode="&#x2557;" 
d="M-20 144v72h284v-504h-72v432h-212zM-20 288v72h428v-648h-72v576h-356z" />
    <glyph glyph-name="uni2558" unicode="&#x2558;" 
d="M264 144v648h72v-432h284v-72h-284v-72h284v-72h-356z" />
    <glyph glyph-name="uni2559" unicode="&#x2559;" 
d="M192 216v576h72v-504h72v504h72v-504h212v-72h-428z" />
    <glyph glyph-name="uni255A" unicode="&#x255a;" 
d="M192 144v648h72v-576h356v-72h-428zM336 288v504h72v-432h212v-72h-284z" />
    <glyph glyph-name="uni255B" unicode="&#x255b;" 
d="M336 792v-648h-356v72h284v72h-284v72h284v432h72z" />
    <glyph glyph-name="uni255C" unicode="&#x255c;" 
d="M408 792v-576h-428v72h212v504h72v-504h72v504h72z" />
    <glyph glyph-name="uni255D" unicode="&#x255d;" 
d="M-20 144v72h356v576h72v-648h-428zM-20 288v72h212v432h72v-504h-284z" />
    <glyph glyph-name="uni255E" unicode="&#x255e;" 
d="M620 216v-72h-284v-432h-72v1080h72v-432h284v-72h-284v-72h284z" />
    <glyph glyph-name="uni255F" unicode="&#x255f;" 
d="M192 -288v1080h72v-1080h-72zM336 -288v1080h72v-504h212v-72h-212v-504h-72z" />
    <glyph glyph-name="uni2560" unicode="&#x2560;" 
d="M192 -288v1080h72v-1080h-72zM336 -288v504h284v-72h-212v-432h-72zM336 288v504h72v-432h212v-72h-284z" />
    <glyph glyph-name="uni2561" unicode="&#x2561;" 
d="M-20 144v72h284v72h-284v72h284v432h72v-1080h-72v432h-284z" />
    <glyph glyph-name="uni2562" unicode="&#x2562;" 
d="M-20 216v72h212v504h72v-1080h-72v504h-212zM336 -288v1080h72v-1080h-72z" />
    <glyph glyph-name="uni2563" unicode="&#x2563;" 
d="M336 -288v1080h72v-1080h-72zM264 792v-504h-284v72h212v432h72zM264 216v-504h-72v432h-212v72h284z" />
    <glyph glyph-name="uni2564" unicode="&#x2564;" 
d="M-20 144v72h640v-72h-284v-432h-72v432h-284zM-20 288v72h640v-72h-640z" />
    <glyph glyph-name="uni2565" unicode="&#x2565;" 
d="M-20 216v72h640v-72h-212v-504h-72v504h-72v-504h-72v504h-212z" />
    <glyph glyph-name="uni2566" unicode="&#x2566;" 
d="M-20 144v72h284v-504h-72v432h-212zM-20 288v72h640v-72h-640zM336 -288v504h284v-72h-212v-432h-72z" />
    <glyph glyph-name="uni2567" unicode="&#x2567;" 
d="M-20 144v72h640v-72h-640zM-20 288v72h284v432h72v-432h284v-72h-640z" />
    <glyph glyph-name="uni2568" unicode="&#x2568;" 
d="M-20 216v72h212v504h72v-504h72v504h72v-504h212v-72h-640z" />
    <glyph glyph-name="uni2569" unicode="&#x2569;" 
d="M-20 144v72h640v-72h-640zM-20 288v72h212v432h72v-504h-284zM336 288v504h72v-432h212v-72h-284z" />
    <glyph glyph-name="uni256A" unicode="&#x256a;" 
d="M-20 144v72h284v72h-284v72h284v432h72v-432h284v-72h-284v-72h284v-72h-284v-432h-72v432h-284z" />
    <glyph glyph-name="uni256B" unicode="&#x256b;" 
d="M-20 216v72h212v504h72v-504h72v504h72v-504h212v-72h-212v-504h-72v504h-72v-504h-72v504h-212z" />
    <glyph glyph-name="uni256C" unicode="&#x256c;" 
d="M-20 144v72h284v-504h-72v432h-212zM-20 288v72h212v432h72v-504h-284zM336 -288v504h284v-72h-212v-432h-72zM336 288v504h72v-432h212v-72h-284z" />
    <glyph glyph-name="uni2580" unicode="&#x2580;" 
d="M0 252v540h600v-540h-600z" />
    <glyph glyph-name="uni2584" unicode="&#x2584;" 
d="M0 -288v540h600v-540h-600z" />
    <glyph glyph-name="uni2588" unicode="&#x2588;" 
d="M0 -288v1080h600v-1080h-600z" />
    <glyph glyph-name="uni258C" unicode="&#x258c;" 
d="M0 -288v1080h300v-1080h-300z" />
    <glyph glyph-name="uni2590" unicode="&#x2590;" 
d="M300 -288v1080h300v-1080h-300z" />
    <glyph glyph-name="uni2591" unicode="&#x2591;" 
d="M0 -288v98h100v-98h-100zM200 -288v98h100v-98h-100zM400 -288v98h100v-98h-100zM0 694v98h100v-98h-100zM200 694v98h100v-98h-100zM400 694v98h100v-98h-100zM0 497v98h100v-98h-100zM200 497v98h100v-98h-100zM400 497v98h100v-98h-100zM0 -91v98h100v-98h-100z
M200 -91v98h100v-98h-100zM400 -91v98h100v-98h-100zM0 105v98h100v-98h-100zM200 105v98h100v-98h-100zM400 105v98h100v-98h-100zM0 301v98h100v-98h-100zM200 301v98h100v-98h-100zM400 301v98h100v-98h-100z" />
    <glyph glyph-name="uni2592" unicode="&#x2592;" 
d="M0 -288v97h99v-97h-99zM200 -288v97h99v-97h-99zM400 -288v97h99v-97h-99zM0 695v97h99v-97h-99zM200 695v97h99v-97h-99zM400 695v97h99v-97h-99zM0 499v97h99v-97h-99zM200 499v97h99v-97h-99zM400 499v97h99v-97h-99zM0 -92v97h99v-97h-99zM200 -92v97h99v-97h-99z
M400 -92v97h99v-97h-99zM0 105v97h99v-97h-99zM200 105v97h99v-97h-99zM400 105v97h99v-97h-99zM0 302v97h99v-97h-99zM200 302v97h99v-97h-99zM400 302v97h99v-97h-99zM100 597v97h99v-97h-99zM300 597v97h99v-97h-99zM500 597v97h100v-97h-100zM100 400v97h99v-97h-99z
M300 400v97h99v-97h-99zM500 400v97h100v-97h-100zM500 203v97h100v-97h-100zM300 203v97h99v-97h-99zM100 203v97h99v-97h-99zM100 6v97h99v-97h-99zM300 6v97h99v-97h-99zM500 6v97h100v-97h-100zM500 -190v97h100v-97h-100zM300 -190v97h99v-97h-99zM100 -190v97h99v-97
h-99z" />
    <glyph glyph-name="uni2593" unicode="&#x2593;" 
d="M138 -92h-138v97h138v-97zM200 -190h-138v97h138v-97zM200 6h-138v97h138v-97zM138 -288h-138v97h138v-97zM338 -92h-138v97h138v-97zM400 -190h-138v97h138v-97zM400 6h-138v97h138v-97zM338 -288h-138v97h138v-97zM538 -92h-138v97h138v-97zM600 -190h-138v97h138v-97z
M600 6h-138v97h138v-97zM538 -288h-138v97h138v-97zM200 597h-138v97h138v-97zM138 695h-138v97h138v-97zM138 499h-138v97h138v-97zM400 597h-138v97h138v-97zM338 695h-138v97h138v-97zM338 499h-138v97h138v-97zM600 597h-138v97h138v-97zM538 695h-138v97h138v-97z
M538 499h-138v97h138v-97zM138 105h-138v97h138v-97zM200 203h-138v97h138v-97zM338 105h-138v97h138v-97zM400 203h-138v97h138v-97zM538 105h-138v97h138v-97zM600 203h-138v97h138v-97zM138 302h-138v97h138v-97zM200 400h-138v97h138v-97zM338 302h-138v97h138v-97z
M400 400h-138v97h138v-97zM538 302h-138v97h138v-97zM600 400h-138v97h138v-97z" />
    <glyph glyph-name="uni25A0" unicode="&#x25a0;" 
d="M100 100v400h400v-400h-400z" />
    <glyph glyph-name="uni25B2" unicode="&#x25b2;" 
d="M46 122l254 474l254 -474h-508z" />
    <glyph glyph-name="uni25B6" unicode="&#x25b6;" 
d="M63 106v508l474 -254z" />
    <glyph glyph-name="uni25BC" unicode="&#x25bc;" 
d="M300 122l-254 474h508z" />
    <glyph glyph-name="uni25C0" unicode="&#x25c0;" 
d="M537 614v-508l-474 254z" />
    <glyph glyph-name="lozenge" unicode="&#x25ca;" 
d="M544 361l-218 -408h-54l-216 408l218 409h54zM482 359l-161 303c-8 16 -16 38 -21 51h-2c-5 -15 -12 -33 -21 -51l-159 -299l162 -304c11 -20 16 -39 19 -51h3c4 13 12 36 19 50z" />
    <glyph glyph-name="uni25CB" unicode="&#x25cb;" 
d="M71 252c0 126 103 229 229 229s229 -103 229 -229s-103 -229 -229 -229s-229 103 -229 229zM113 252c0 -103 84 -187 187 -187s187 84 187 187c0 102 -84 187 -187 187s-187 -85 -187 -187z" />
    <glyph glyph-name="uni25D8" unicode="&#x25d8;" 
d="M0 -288v1080h600v-1080h-600zM177 252c0 -69 54 -123 123 -123c67 0 123 54 123 123c0 67 -56 123 -123 123s-123 -56 -123 -123z" />
    <glyph glyph-name="uni25D9" unicode="&#x25d9;" 
d="M0 -288v1080h600v-1080h-600zM71 252c0 -126 103 -229 229 -229s229 103 229 229s-103 229 -229 229s-229 -103 -229 -229zM131 252c0 92 76 168 169 168s169 -76 169 -168c0 -93 -76 -168 -169 -168s-169 75 -169 168z" />
    <glyph glyph-name="uni263A" unicode="&#x263a;" 
d="M10 330c0 162 127 290 290 290s290 -128 290 -290s-127 -290 -290 -290s-290 128 -290 290zM300 605c-154 0 -274 -121 -274 -275s120 -275 274 -275s274 121 274 275s-120 275 -274 275zM132 429c0 28 22 50 50 50s50 -22 50 -50s-22 -50 -50 -50s-50 22 -50 50z
M368 429c0 28 22 50 50 50s50 -22 50 -50s-22 -50 -50 -50s-50 22 -50 50zM300 110c-46 0 -102 16 -140 62c-34 40 -13 89 2 62c42 -76 96 -90 138 -90s96 14 138 90c15 27 36 -22 2 -62c-38 -46 -94 -62 -140 -62z" />
    <glyph glyph-name="uni263B" unicode="&#x263b;" 
d="M10 330c0 162 127 290 290 290s290 -128 290 -290s-127 -290 -290 -290s-290 128 -290 290zM132 429c0 -28 22 -50 50 -50s50 22 50 50s-22 50 -50 50s-50 -22 -50 -50zM368 429c0 -28 22 -50 50 -50s50 22 50 50s-22 50 -50 50s-50 -22 -50 -50zM300 110
c46 0 102 16 140 62c34 40 13 89 -2 62c-42 -76 -96 -90 -138 -90s-96 14 -138 90c-15 27 -36 -22 -2 -62c38 -46 94 -62 140 -62z" />
    <glyph glyph-name="uni263C" unicode="&#x263c;" 
d="M518 513l-88 -88c22 -25 32 -59 36 -90h124v-32h-125c-5 -36 -17 -62 -38 -84l88 -88l-23 -23l-87 87c-24 -23 -55 -37 -89 -42v-123h-32v123c-34 5 -66 16 -89 37l-87 -87l-22 23l87 87c-24 26 -36 56 -39 90h-124v32h124c-1 40 11 70 35 96l-87 87l22 24l88 -88
c26 20 62 29 92 31v125h32v-125c31 -1 61 -12 91 -37l88 87zM166 319c0 -75 50 -134 131 -134c83 0 137 59 137 134c-2 76 -55 134 -136 134c-82 -1 -132 -60 -132 -134z" />
    <glyph glyph-name="uni2640" unicode="&#x2640;" 
d="M318 0h-36v171h-126v36h126v109c-87 15 -144 84 -144 164c0 89 73 160 162 160c91 0 162 -71 162 -160c0 -80 -55 -149 -144 -164v-109h126v-36h-126v-171zM170 478c0 -73 57 -130 129 -130c74 0 131 57 131 130s-57 130 -131 130c-72 0 -129 -57 -129 -130z" />
    <glyph glyph-name="uni2642" unicode="&#x2642;" 
d="M305 140c51 52 51 132 0 183c-52 53 -133 53 -184 1c-52 -52 -52 -132 1 -184c50 -51 131 -51 183 0zM315 359l170 171l-104 38v2h170v-170h-2l-39 104l-170 -170c51 -72 42 -161 -14 -218c-63 -63 -165 -61 -228 2c-64 64 -64 164 -1 227c56 57 144 67 218 14z" />
    <glyph glyph-name="uni2660" unicode="&#x2660;" 
d="M542 0h-484l4 22c157 5 229 90 229 247h-2c-28 -63 -81 -110 -155 -110c-70 0 -131 56 -131 128c0 86 73 143 133 195c77 66 139 127 163 230h2c24 -103 86 -164 163 -230c60 -52 133 -109 133 -195c0 -72 -61 -128 -131 -128c-74 0 -127 47 -155 110h-2
c0 -157 72 -242 229 -247z" />
    <glyph glyph-name="uni2662" unicode="&#x2662;" 
d="M300 712c84 -129 188 -249 297 -362c-109 -113 -213 -233 -297 -362c-84 129 -188 249 -297 362c109 113 213 233 297 362zM300 11c76 119 175 232 277 339c-102 107 -201 220 -277 339c-76 -119 -175 -232 -277 -339c102 -107 201 -220 277 -339z" />
    <glyph glyph-name="uni2663" unicode="&#x2663;" 
d="M503 0h-406l6 21c109 25 192 72 192 275h-2c-21 -64 -80 -138 -153 -138c-88 0 -137 83 -137 162c0 64 40 160 109 160c35 0 62 -15 86 -30c-19 37 -32 64 -32 106c0 72 48 156 134 156s134 -84 134 -156c0 -42 -13 -69 -32 -106c24 15 51 30 86 30
c69 0 109 -96 109 -160c0 -79 -49 -162 -137 -162c-73 0 -132 74 -153 138h-2c0 -203 83 -250 192 -275z" />
    <glyph glyph-name="uni2665" unicode="&#x2665;" 
d="M301 -12h-2c-29 120 -106 224 -180 322c-53 72 -116 161 -116 253c0 83 59 149 144 149c79 0 137 -73 152 -145h2c15 72 73 145 152 145c85 0 144 -66 144 -149c0 -92 -63 -181 -116 -253c-74 -98 -151 -202 -180 -322z" />
    <glyph glyph-name="uni2666" unicode="&#x2666;" 
d="M300 712c84 -129 188 -249 297 -362c-109 -113 -213 -233 -297 -362c-84 129 -188 249 -297 362c109 113 213 233 297 362z" />
    <glyph glyph-name="uni266A" unicode="&#x266a;" 
d="M286 181v531h44v-63l23 -29l39 -46c62 -75 102 -147 102 -246c0 -58 -21 -122 -59 -166h-29c29 49 43 96 43 154c0 73 -39 168 -119 181v-314c0 -117 -67 -173 -155 -173c-41 0 -69 22 -69 64c0 64 62 118 124 118c18 0 40 -4 56 -11z" />
    <glyph glyph-name="uni266C" unicode="&#x266c;" 
d="M545 202v280l-309 -93v-241c0 -121 -67 -175 -156 -175c-41 0 -69 22 -69 63c0 65 63 118 125 118c18 0 40 -4 56 -11v469l397 112v-517c0 -121 -67 -175 -156 -175c-41 0 -69 22 -69 63c0 65 63 118 125 118c18 0 40 -4 56 -11zM236 468l309 94v72l-309 -94v-72z" />
    <glyph glyph-name="SM700000" unicode="&#xe000;" 
d="M100 260v200h400v-200h-400z" />
    <glyph glyph-name="uni0044_uni004D" unicode="&#xe001;" 
d="M443 361l99 359h49v-720h-50v548h-2l-96 -353l-96 353l-2 -2v-546h-50v720h49zM3 0v720h121c91 0 152 -79 152 -360c0 -277 -57 -360 -160 -360h-113zM53 667v-614h60c68 3 113 39 113 307c0 276 -51 307 -114 307h-59z" />
    <glyph glyph-name="uniF638" unicode="&#xf638;" 
d="M422 533l-227 -402c17 -43 55 -82 105 -82c66 0 134 48 134 311c0 58 -1 116 -12 173zM174 223l219 390c-21 33 -52 58 -93 58c-66 0 -135 -50 -133 -305c0 -46 5 -92 5 -138v-5h2zM154 59l-38 -66l-56 32l58 103c-24 72 -26 150 -26 226c0 78 -14 380 208 380
c50 0 95 -19 131 -55l38 68l56 -33l-54 -95c35 -78 38 -168 38 -253c0 -82 9 -380 -209 -380c-57 0 -112 27 -146 73z" />
    <glyph glyph-name="fi" unicode="&#xfb01;" 
d="M407 473h-200v-473h-75v473h-99v63h99v32c0 105 79 166 163 166c64 0 120 -27 177 -50v-83c-51 25 -114 70 -172 70c-74 0 -93 -49 -93 -109v-26h275v-536h-75v473z" />
    <glyph glyph-name="fl" unicode="&#xfb02;" 
d="M204 536h145v-63h-145v-473h-75v473h-99v63h99v32c0 105 79 166 163 166c66 0 128 -26 203 -60v-674h-75v629c-38 18 -78 42 -120 42c-71 0 -96 -46 -96 -102v-33z" />
    <glyph glyph-name="emdash" 
d="M600 327h-600v63h600v-63z" />
  </font>
</defs>
</svg>
